M48
; DRILL file KiCad 10.0.6 date 2026-09-13T17:41:37
; FORMAT={-:-/ absolute / metric / decimal}
; #@! TF.CreationDate,2026-09-13T17:41:37+05:30
; #@! TF.GenerationSoftware,Kicad,Pcbnew,10.0.6
; #@! TF.FileFunction,Plated,1,2,PTH
FMAT,2
METRIC
; #@! TA.AperFunction,Plated,PTH,ViaDrill
T1C0.300
; #@! TA.AperFunction,Plated,PTH,ComponentDrill
T2C0.550
; #@! TA.AperFunction,Plated,PTH,ComponentDrill
T3C0.850
; #@! TA.AperFunction,Plated,PTH,ComponentDrill
T4C1.000
%
G90
G05
T1
X101.0Y-77.0
X104.0Y-68.5
X105.0Y-88.0
X106.5Y-64.5
X106.5Y-81.5
X107.0Y-68.5
X109.0Y-75.0
X110.5Y-66.0
X111.5Y-68.5
X112.5Y-65.0
X112.5Y-74.5
X113.0Y-63.0
X113.5Y-73.0
X114.5Y-61.5
X114.5Y-66.225
X114.5Y-67.5
X114.5Y-69.0
X115.0Y-88.5
X115.495Y-75.05
X115.525Y-72.712
X116.0Y-72.0
X118.0Y-70.5
X118.0Y-89.0
X123.5Y-69.5
X124.0Y-90.0
X128.5Y-74.5
X128.705Y-66.0
X129.0Y-72.5
X132.0Y-73.5
X134.5Y-92.0
X135.0Y-73.0
X140.5Y-83.0
X141.0Y-80.5
T4
X110.5Y-94.0
X110.5Y-96.54
X110.5Y-99.08
X115.5Y-93.96
X115.5Y-96.5
X115.5Y-99.04
X120.5Y-93.96
X120.5Y-96.5
X120.5Y-99.04
X125.5Y-93.96
X125.5Y-96.5
X125.5Y-99.04
X132.0Y-91.69
X132.0Y-94.23
X132.0Y-96.77
X132.0Y-99.31
T2
G00X126.13Y-60.63
M15
G01X126.13Y-59.98
M16
G05
G00X133.88Y-60.63
M15
G01X133.88Y-59.98
M16
G05
T3
G00X126.28Y-64.38
M15
G01X126.28Y-63.83
M16
G05
G00X133.73Y-64.38
M15
G01X133.73Y-63.83
M16
G05
M30
