%TF.GenerationSoftware,KiCad,Pcbnew,10.0.6*%
%TF.CreationDate,2026-09-13T17:41:43+05:30*%
%TF.ProjectId,flight_controller_pcb,666c6967-6874-45f6-936f-6e74726f6c6c,rev?*%
%TF.SameCoordinates,Original*%
%TF.FileFunction,Copper,L2,Bot*%
%TF.FilePolarity,Positive*%
%FSLAX46Y46*%
G04 Gerber Fmt 4.6, Leading zero omitted, Abs format (unit mm)*
G04 Created by KiCad (PCBNEW 10.0.6) date 2026-09-13 17:41:43*
%MOMM*%
%LPD*%
G01*
G04 APERTURE LIST*
%TA.AperFunction,ComponentPad*%
%ADD10O,1.150000X1.800000*%
%TD*%
%TA.AperFunction,ComponentPad*%
%ADD11O,1.450000X2.000000*%
%TD*%
%TA.AperFunction,ComponentPad*%
%ADD12R,1.700000X1.700000*%
%TD*%
%TA.AperFunction,ComponentPad*%
%ADD13C,1.700000*%
%TD*%
%TA.AperFunction,ViaPad*%
%ADD14C,0.700000*%
%TD*%
%TA.AperFunction,ViaPad*%
%ADD15C,0.600000*%
%TD*%
%TA.AperFunction,Conductor*%
%ADD16C,0.200000*%
%TD*%
%TA.AperFunction,Conductor*%
%ADD17C,0.500000*%
%TD*%
%TA.AperFunction,Conductor*%
%ADD18C,0.300000*%
%TD*%
G04 APERTURE END LIST*
D10*
%TO.P,J7,SH,SHIELD_SH*%
%TO.N,unconnected-(J7-SHIELD-PadSH)_3*%
X133880000Y-60305000D03*
D11*
%TO.N,unconnected-(J7-SHIELD-PadSH)_2*%
X133730000Y-64105000D03*
%TO.N,unconnected-(J7-SHIELD-PadSH)_1*%
X126280000Y-64105000D03*
D10*
%TO.N,unconnected-(J7-SHIELD-PadSH)*%
X126130000Y-60305000D03*
%TD*%
D12*
%TO.P,J6,1,Pin_1_1*%
%TO.N,ESC3*%
X120500000Y-93960000D03*
D13*
%TO.P,J6,2,Pin_2_2*%
%TO.N,unconnected-(J6-Pin_2-Pad2)*%
X120500000Y-96500000D03*
%TO.P,J6,3,Pin_3_3*%
%TO.N,GND*%
X120500000Y-99040000D03*
%TD*%
D12*
%TO.P,J5,1,Pin_1_1*%
%TO.N,ESC4*%
X125500000Y-93960000D03*
D13*
%TO.P,J5,2,Pin_2_2*%
%TO.N,unconnected-(J5-Pin_2-Pad2)*%
X125500000Y-96500000D03*
%TO.P,J5,3,Pin_3_3*%
%TO.N,GND*%
X125500000Y-99040000D03*
%TD*%
D12*
%TO.P,J4,1,Pin_1_1*%
%TO.N,ESC2*%
X115500000Y-93960000D03*
D13*
%TO.P,J4,2,Pin_2_2*%
%TO.N,unconnected-(J4-Pin_2-Pad2)*%
X115500000Y-96500000D03*
%TO.P,J4,3,Pin_3_3*%
%TO.N,GND*%
X115500000Y-99040000D03*
%TD*%
D12*
%TO.P,J3,1,Pin_1_1*%
%TO.N,ESC1*%
X110500000Y-94000000D03*
D13*
%TO.P,J3,2,Pin_2_2*%
%TO.N,VBUS*%
X110500000Y-96540000D03*
%TO.P,J3,3,Pin_3_3*%
%TO.N,GND*%
X110500000Y-99080000D03*
%TD*%
D12*
%TO.P,J2,1,Pin_1_1*%
%TO.N,GND*%
X132000000Y-91690000D03*
D13*
%TO.P,J2,2,Pin_2_2*%
%TO.N,/SWDCLK*%
X132000000Y-94230000D03*
%TO.P,J2,3,Pin_3_3*%
%TO.N,/SWDIO*%
X132000000Y-96770000D03*
%TO.P,J2,4,Pin_4_4*%
%TO.N,+3.3V*%
X132000000Y-99310000D03*
%TD*%
D14*
%TO.N,GND*%
X104000000Y-68500000D03*
D15*
%TO.N,+3.3V*%
X114500000Y-61500000D03*
X114500000Y-69000000D03*
%TO.N,GND*%
X115525000Y-72711627D03*
%TO.N,+3.3V*%
X129000000Y-72500000D03*
X132000000Y-73500000D03*
%TO.N,/SDA*%
X113000000Y-63000000D03*
X115495152Y-75050000D03*
%TO.N,/SCL*%
X112500000Y-74500000D03*
%TO.N,GND*%
X124000000Y-90000000D03*
X111500000Y-68500000D03*
X105000000Y-88000000D03*
X106500000Y-81500000D03*
X109000000Y-75000000D03*
X101000000Y-77000000D03*
X107000000Y-68500000D03*
X110500000Y-66000000D03*
X112500000Y-65000000D03*
X118000000Y-70500000D03*
X106500000Y-64500000D03*
%TO.N,/SCL*%
X114500000Y-67500000D03*
X114500000Y-66225000D03*
%TO.N,GND*%
X123500000Y-69500000D03*
X128705000Y-66000000D03*
X128500000Y-74500000D03*
X135000000Y-73000000D03*
X140500000Y-83000000D03*
X134500000Y-92000000D03*
X141000000Y-80500000D03*
X118000000Y-89000000D03*
X115000000Y-88500000D03*
%TO.N,Net-(U1-BOOT0)*%
X113500000Y-73000000D03*
X116000000Y-72000000D03*
%TD*%
%TO.N,+3.3V*%
D16*
X115050000Y-62050000D02*
X114500000Y-61500000D01*
X115050000Y-68450000D02*
X115050000Y-62050000D01*
X114500000Y-69000000D02*
X115050000Y-68450000D01*
%TO.N,GND*%
X118000000Y-71000000D02*
X118000000Y-70500000D01*
X115525000Y-72711627D02*
X116288373Y-72711627D01*
X116288373Y-72711627D02*
X118000000Y-71000000D01*
%TO.N,+3.3V*%
D17*
X130000000Y-73500000D02*
X129000000Y-72500000D01*
X132000000Y-73500000D02*
X130000000Y-73500000D01*
%TO.N,/SDA*%
D16*
X113050000Y-63050000D02*
X113000000Y-63000000D01*
X113050000Y-67950000D02*
X113050000Y-63050000D01*
X111950000Y-74727818D02*
X111950000Y-69050000D01*
X112272182Y-75050000D02*
X111950000Y-74727818D01*
X115495152Y-75050000D02*
X112272182Y-75050000D01*
X111950000Y-69050000D02*
X113050000Y-67950000D01*
%TO.N,/SCL*%
X112500000Y-69500000D02*
X114500000Y-67500000D01*
X112500000Y-74500000D02*
X112500000Y-69500000D01*
X114500000Y-66225000D02*
X114500000Y-67500000D01*
%TO.N,Net-(U1-BOOT0)*%
D18*
X114500000Y-72000000D02*
X113500000Y-73000000D01*
X116000000Y-72000000D02*
X114500000Y-72000000D01*
%TD*%
%TA.AperFunction,Conductor*%
%TO.N,GND*%
G36*
X140003736Y-58500726D02*
G01*
X140293796Y-58518271D01*
X140308659Y-58520076D01*
X140590797Y-58571780D01*
X140605334Y-58575363D01*
X140879182Y-58660698D01*
X140893163Y-58666000D01*
X141154734Y-58783724D01*
X141167987Y-58790680D01*
X141413458Y-58939071D01*
X141425776Y-58947573D01*
X141626078Y-59104500D01*
X141651573Y-59124474D01*
X141662781Y-59134404D01*
X141865595Y-59337218D01*
X141875525Y-59348426D01*
X142045436Y-59565301D01*
X142052422Y-59574217D01*
X142060928Y-59586541D01*
X142209319Y-59832012D01*
X142216277Y-59845269D01*
X142289529Y-60008028D01*
X142333994Y-60106823D01*
X142339304Y-60120825D01*
X142424635Y-60394664D01*
X142428219Y-60409202D01*
X142479923Y-60691340D01*
X142481728Y-60706205D01*
X142499274Y-60996263D01*
X142499500Y-61003750D01*
X142499500Y-102996249D01*
X142499274Y-103003736D01*
X142481728Y-103293794D01*
X142479923Y-103308659D01*
X142428219Y-103590797D01*
X142424635Y-103605335D01*
X142339304Y-103879174D01*
X142333994Y-103893176D01*
X142216277Y-104154730D01*
X142209319Y-104167987D01*
X142060928Y-104413458D01*
X142052422Y-104425782D01*
X141875525Y-104651573D01*
X141865595Y-104662781D01*
X141662781Y-104865595D01*
X141651573Y-104875525D01*
X141425782Y-105052422D01*
X141413458Y-105060928D01*
X141167987Y-105209319D01*
X141154730Y-105216277D01*
X140893176Y-105333994D01*
X140879174Y-105339304D01*
X140605335Y-105424635D01*
X140590797Y-105428219D01*
X140308659Y-105479923D01*
X140293794Y-105481728D01*
X140003736Y-105499274D01*
X139996249Y-105499500D01*
X102003751Y-105499500D01*
X101996264Y-105499274D01*
X101706205Y-105481728D01*
X101691340Y-105479923D01*
X101409202Y-105428219D01*
X101394664Y-105424635D01*
X101120825Y-105339304D01*
X101106827Y-105333995D01*
X100954096Y-105265256D01*
X100845269Y-105216277D01*
X100832012Y-105209319D01*
X100586541Y-105060928D01*
X100574217Y-105052422D01*
X100348426Y-104875525D01*
X100337218Y-104865595D01*
X100134404Y-104662781D01*
X100124474Y-104651573D01*
X99947573Y-104425776D01*
X99939071Y-104413458D01*
X99790680Y-104167987D01*
X99783722Y-104154730D01*
X99764620Y-104112287D01*
X99666000Y-103893163D01*
X99660698Y-103879182D01*
X99575363Y-103605334D01*
X99571780Y-103590797D01*
X99520076Y-103308659D01*
X99518271Y-103293794D01*
X99500726Y-103003736D01*
X99500500Y-102996249D01*
X99500500Y-102897648D01*
X100699500Y-102897648D01*
X100699500Y-103102351D01*
X100731522Y-103304534D01*
X100794781Y-103499223D01*
X100887715Y-103681613D01*
X101008028Y-103847213D01*
X101152786Y-103991971D01*
X101307749Y-104104556D01*
X101318390Y-104112287D01*
X101401689Y-104154730D01*
X101500776Y-104205218D01*
X101500778Y-104205218D01*
X101500781Y-104205220D01*
X101605137Y-104239127D01*
X101695465Y-104268477D01*
X101796557Y-104284488D01*
X101897648Y-104300500D01*
X101897649Y-104300500D01*
X102102351Y-104300500D01*
X102102352Y-104300500D01*
X102304534Y-104268477D01*
X102499219Y-104205220D01*
X102681610Y-104112287D01*
X102774590Y-104044732D01*
X102847213Y-103991971D01*
X102847215Y-103991968D01*
X102847219Y-103991966D01*
X102991966Y-103847219D01*
X102991968Y-103847215D01*
X102991971Y-103847213D01*
X103044732Y-103774590D01*
X103112287Y-103681610D01*
X103205220Y-103499219D01*
X103268477Y-103304534D01*
X103300500Y-103102352D01*
X103300500Y-102897648D01*
X138699500Y-102897648D01*
X138699500Y-103102351D01*
X138731522Y-103304534D01*
X138794781Y-103499223D01*
X138887715Y-103681613D01*
X139008028Y-103847213D01*
X139152786Y-103991971D01*
X139307749Y-104104556D01*
X139318390Y-104112287D01*
X139401689Y-104154730D01*
X139500776Y-104205218D01*
X139500778Y-104205218D01*
X139500781Y-104205220D01*
X139605137Y-104239127D01*
X139695465Y-104268477D01*
X139796557Y-104284488D01*
X139897648Y-104300500D01*
X139897649Y-104300500D01*
X140102351Y-104300500D01*
X140102352Y-104300500D01*
X140304534Y-104268477D01*
X140499219Y-104205220D01*
X140681610Y-104112287D01*
X140774590Y-104044732D01*
X140847213Y-103991971D01*
X140847215Y-103991968D01*
X140847219Y-103991966D01*
X140991966Y-103847219D01*
X140991968Y-103847215D01*
X140991971Y-103847213D01*
X141044732Y-103774590D01*
X141112287Y-103681610D01*
X141205220Y-103499219D01*
X141268477Y-103304534D01*
X141300500Y-103102352D01*
X141300500Y-102897648D01*
X141268477Y-102695466D01*
X141205220Y-102500781D01*
X141205218Y-102500778D01*
X141205218Y-102500776D01*
X141171503Y-102434607D01*
X141112287Y-102318390D01*
X141104556Y-102307749D01*
X140991971Y-102152786D01*
X140847213Y-102008028D01*
X140681613Y-101887715D01*
X140681612Y-101887714D01*
X140681610Y-101887713D01*
X140624653Y-101858691D01*
X140499223Y-101794781D01*
X140304534Y-101731522D01*
X140129995Y-101703878D01*
X140102352Y-101699500D01*
X139897648Y-101699500D01*
X139873329Y-101703351D01*
X139695465Y-101731522D01*
X139500776Y-101794781D01*
X139318386Y-101887715D01*
X139152786Y-102008028D01*
X139008028Y-102152786D01*
X138887715Y-102318386D01*
X138794781Y-102500776D01*
X138731522Y-102695465D01*
X138699500Y-102897648D01*
X103300500Y-102897648D01*
X103268477Y-102695466D01*
X103205220Y-102500781D01*
X103205218Y-102500778D01*
X103205218Y-102500776D01*
X103171503Y-102434607D01*
X103112287Y-102318390D01*
X103104556Y-102307749D01*
X102991971Y-102152786D01*
X102847213Y-102008028D01*
X102681613Y-101887715D01*
X102681612Y-101887714D01*
X102681610Y-101887713D01*
X102624653Y-101858691D01*
X102499223Y-101794781D01*
X102304534Y-101731522D01*
X102129995Y-101703878D01*
X102102352Y-101699500D01*
X101897648Y-101699500D01*
X101873329Y-101703351D01*
X101695465Y-101731522D01*
X101500776Y-101794781D01*
X101318386Y-101887715D01*
X101152786Y-102008028D01*
X101008028Y-102152786D01*
X100887715Y-102318386D01*
X100794781Y-102500776D01*
X100731522Y-102695465D01*
X100699500Y-102897648D01*
X99500500Y-102897648D01*
X99500500Y-98973753D01*
X109150000Y-98973753D01*
X109150000Y-99186246D01*
X109183242Y-99396127D01*
X109183242Y-99396130D01*
X109248904Y-99598217D01*
X109345375Y-99787550D01*
X109384728Y-99841716D01*
X110017037Y-99209408D01*
X110034075Y-99272993D01*
X110099901Y-99387007D01*
X110192993Y-99480099D01*
X110307007Y-99545925D01*
X110370590Y-99562962D01*
X109738282Y-100195269D01*
X109738282Y-100195270D01*
X109792449Y-100234624D01*
X109981782Y-100331095D01*
X110183870Y-100396757D01*
X110393754Y-100430000D01*
X110606246Y-100430000D01*
X110816127Y-100396757D01*
X110816130Y-100396757D01*
X111018217Y-100331095D01*
X111207554Y-100234622D01*
X111261716Y-100195270D01*
X111261717Y-100195270D01*
X110629408Y-99562962D01*
X110692993Y-99545925D01*
X110807007Y-99480099D01*
X110900099Y-99387007D01*
X110965925Y-99272993D01*
X110982962Y-99209409D01*
X111615270Y-99841717D01*
X111615270Y-99841716D01*
X111654622Y-99787554D01*
X111751095Y-99598217D01*
X111816757Y-99396130D01*
X111816757Y-99396127D01*
X111850000Y-99186246D01*
X111850000Y-98973755D01*
X111845965Y-98948280D01*
X111845965Y-98948279D01*
X111843664Y-98933753D01*
X114150000Y-98933753D01*
X114150000Y-99146246D01*
X114183242Y-99356127D01*
X114183242Y-99356130D01*
X114248904Y-99558217D01*
X114345375Y-99747550D01*
X114384728Y-99801716D01*
X115017037Y-99169408D01*
X115034075Y-99232993D01*
X115099901Y-99347007D01*
X115192993Y-99440099D01*
X115307007Y-99505925D01*
X115370590Y-99522962D01*
X114738282Y-100155269D01*
X114738282Y-100155270D01*
X114792449Y-100194624D01*
X114981782Y-100291095D01*
X115183870Y-100356757D01*
X115393754Y-100390000D01*
X115606246Y-100390000D01*
X115816127Y-100356757D01*
X115816130Y-100356757D01*
X116018217Y-100291095D01*
X116207554Y-100194622D01*
X116261716Y-100155270D01*
X116261717Y-100155270D01*
X115629408Y-99522962D01*
X115692993Y-99505925D01*
X115807007Y-99440099D01*
X115900099Y-99347007D01*
X115965925Y-99232993D01*
X115982962Y-99169409D01*
X116615270Y-99801717D01*
X116615270Y-99801716D01*
X116654622Y-99747554D01*
X116751095Y-99558217D01*
X116816757Y-99356130D01*
X116816757Y-99356127D01*
X116850000Y-99146246D01*
X116850000Y-98933753D01*
X119150000Y-98933753D01*
X119150000Y-99146246D01*
X119183242Y-99356127D01*
X119183242Y-99356130D01*
X119248904Y-99558217D01*
X119345375Y-99747550D01*
X119384728Y-99801716D01*
X120017037Y-99169408D01*
X120034075Y-99232993D01*
X120099901Y-99347007D01*
X120192993Y-99440099D01*
X120307007Y-99505925D01*
X120370590Y-99522962D01*
X119738282Y-100155269D01*
X119738282Y-100155270D01*
X119792449Y-100194624D01*
X119981782Y-100291095D01*
X120183870Y-100356757D01*
X120393754Y-100390000D01*
X120606246Y-100390000D01*
X120816127Y-100356757D01*
X120816130Y-100356757D01*
X121018217Y-100291095D01*
X121207554Y-100194622D01*
X121261716Y-100155270D01*
X121261717Y-100155270D01*
X120629408Y-99522962D01*
X120692993Y-99505925D01*
X120807007Y-99440099D01*
X120900099Y-99347007D01*
X120965925Y-99232993D01*
X120982962Y-99169409D01*
X121615270Y-99801717D01*
X121615270Y-99801716D01*
X121654622Y-99747554D01*
X121751095Y-99558217D01*
X121816757Y-99356130D01*
X121816757Y-99356127D01*
X121850000Y-99146246D01*
X121850000Y-98933753D01*
X124150000Y-98933753D01*
X124150000Y-99146246D01*
X124183242Y-99356127D01*
X124183242Y-99356130D01*
X124248904Y-99558217D01*
X124345375Y-99747550D01*
X124384728Y-99801716D01*
X125017037Y-99169408D01*
X125034075Y-99232993D01*
X125099901Y-99347007D01*
X125192993Y-99440099D01*
X125307007Y-99505925D01*
X125370590Y-99522962D01*
X124738282Y-100155269D01*
X124738282Y-100155270D01*
X124792449Y-100194624D01*
X124981782Y-100291095D01*
X125183870Y-100356757D01*
X125393754Y-100390000D01*
X125606246Y-100390000D01*
X125816127Y-100356757D01*
X125816130Y-100356757D01*
X126018217Y-100291095D01*
X126207554Y-100194622D01*
X126261716Y-100155270D01*
X126261717Y-100155270D01*
X125629408Y-99522962D01*
X125692993Y-99505925D01*
X125807007Y-99440099D01*
X125900099Y-99347007D01*
X125965925Y-99232993D01*
X125982962Y-99169408D01*
X126615270Y-99801717D01*
X126615270Y-99801716D01*
X126654622Y-99747554D01*
X126751095Y-99558217D01*
X126816757Y-99356130D01*
X126816757Y-99356127D01*
X126850000Y-99146246D01*
X126850000Y-98933753D01*
X126816757Y-98723872D01*
X126816757Y-98723869D01*
X126751095Y-98521782D01*
X126654624Y-98332449D01*
X126615270Y-98278282D01*
X126615269Y-98278282D01*
X125982962Y-98910590D01*
X125965925Y-98847007D01*
X125900099Y-98732993D01*
X125807007Y-98639901D01*
X125692993Y-98574075D01*
X125629409Y-98557037D01*
X126261716Y-97924728D01*
X126207550Y-97885375D01*
X126018217Y-97788904D01*
X125989292Y-97779506D01*
X125931616Y-97740068D01*
X125904418Y-97675710D01*
X125916333Y-97606863D01*
X125963577Y-97555388D01*
X125971315Y-97551090D01*
X126102994Y-97483996D01*
X126249501Y-97377553D01*
X126377553Y-97249501D01*
X126483996Y-97102994D01*
X126566211Y-96941639D01*
X126622171Y-96769409D01*
X126644165Y-96630546D01*
X126650500Y-96590551D01*
X126650500Y-96409448D01*
X126628506Y-96270589D01*
X126622171Y-96230591D01*
X126566211Y-96058361D01*
X126566211Y-96058360D01*
X126504375Y-95937002D01*
X126483996Y-95897006D01*
X126406619Y-95790505D01*
X126377558Y-95750505D01*
X126377554Y-95750500D01*
X126249499Y-95622445D01*
X126249494Y-95622441D01*
X126102997Y-95516006D01*
X126102996Y-95516005D01*
X126102994Y-95516004D01*
X126020143Y-95473789D01*
X125941639Y-95433788D01*
X125941636Y-95433787D01*
X125769410Y-95377829D01*
X125637728Y-95356972D01*
X125574594Y-95327042D01*
X125537663Y-95267731D01*
X125538661Y-95197868D01*
X125577271Y-95139636D01*
X125641235Y-95111522D01*
X125657120Y-95110499D01*
X126394864Y-95110499D01*
X126394879Y-95110497D01*
X126394882Y-95110497D01*
X126419987Y-95107586D01*
X126419988Y-95107585D01*
X126419991Y-95107585D01*
X126522765Y-95062206D01*
X126602206Y-94982765D01*
X126647585Y-94879991D01*
X126650500Y-94854865D01*
X126650499Y-93065136D01*
X126647958Y-93043223D01*
X126647586Y-93040012D01*
X126647585Y-93040010D01*
X126647585Y-93040009D01*
X126602206Y-92937235D01*
X126522765Y-92857794D01*
X126510578Y-92852413D01*
X126419992Y-92812415D01*
X126394865Y-92809500D01*
X124605143Y-92809500D01*
X124605117Y-92809502D01*
X124580012Y-92812413D01*
X124580008Y-92812415D01*
X124477235Y-92857793D01*
X124397794Y-92937234D01*
X124352415Y-93040006D01*
X124352415Y-93040008D01*
X124349500Y-93065131D01*
X124349500Y-94854856D01*
X124349502Y-94854882D01*
X124352413Y-94879987D01*
X124352415Y-94879991D01*
X124397793Y-94982764D01*
X124397794Y-94982765D01*
X124477235Y-95062206D01*
X124580009Y-95107585D01*
X124605135Y-95110500D01*
X125342873Y-95110499D01*
X125409910Y-95130183D01*
X125455665Y-95182987D01*
X125465609Y-95252146D01*
X125436584Y-95315702D01*
X125377806Y-95353476D01*
X125362270Y-95356972D01*
X125230589Y-95377829D01*
X125058363Y-95433787D01*
X125058360Y-95433788D01*
X124897002Y-95516006D01*
X124750505Y-95622441D01*
X124750500Y-95622445D01*
X124622445Y-95750500D01*
X124622441Y-95750505D01*
X124516006Y-95897002D01*
X124433788Y-96058360D01*
X124433787Y-96058363D01*
X124377829Y-96230589D01*
X124349500Y-96409448D01*
X124349500Y-96590551D01*
X124377829Y-96769410D01*
X124433787Y-96941636D01*
X124433788Y-96941639D01*
X124516006Y-97102997D01*
X124622441Y-97249494D01*
X124622445Y-97249499D01*
X124750500Y-97377554D01*
X124750505Y-97377558D01*
X124805561Y-97417558D01*
X124897006Y-97483996D01*
X124975504Y-97523993D01*
X125028684Y-97551090D01*
X125079480Y-97599065D01*
X125096275Y-97666886D01*
X125073737Y-97733021D01*
X125019022Y-97776472D01*
X125010708Y-97779506D01*
X124981781Y-97788905D01*
X124792439Y-97885380D01*
X124738282Y-97924727D01*
X124738282Y-97924728D01*
X125370591Y-98557037D01*
X125307007Y-98574075D01*
X125192993Y-98639901D01*
X125099901Y-98732993D01*
X125034075Y-98847007D01*
X125017037Y-98910591D01*
X124384728Y-98278282D01*
X124384727Y-98278282D01*
X124345380Y-98332439D01*
X124248904Y-98521782D01*
X124183242Y-98723869D01*
X124183242Y-98723872D01*
X124150000Y-98933753D01*
X121850000Y-98933753D01*
X121816757Y-98723872D01*
X121816757Y-98723869D01*
X121751095Y-98521782D01*
X121654624Y-98332449D01*
X121615270Y-98278282D01*
X121615269Y-98278282D01*
X120982962Y-98910590D01*
X120965925Y-98847007D01*
X120900099Y-98732993D01*
X120807007Y-98639901D01*
X120692993Y-98574075D01*
X120629409Y-98557037D01*
X121261716Y-97924728D01*
X121207550Y-97885375D01*
X121018217Y-97788904D01*
X120989292Y-97779506D01*
X120931616Y-97740068D01*
X120904418Y-97675710D01*
X120916333Y-97606863D01*
X120963577Y-97555388D01*
X120971315Y-97551090D01*
X121102994Y-97483996D01*
X121249501Y-97377553D01*
X121377553Y-97249501D01*
X121483996Y-97102994D01*
X121566211Y-96941639D01*
X121622171Y-96769409D01*
X121644165Y-96630546D01*
X121650500Y-96590551D01*
X121650500Y-96409448D01*
X121628506Y-96270589D01*
X121622171Y-96230591D01*
X121566211Y-96058361D01*
X121566211Y-96058360D01*
X121504375Y-95937002D01*
X121483996Y-95897006D01*
X121406619Y-95790505D01*
X121377558Y-95750505D01*
X121377554Y-95750500D01*
X121249499Y-95622445D01*
X121249494Y-95622441D01*
X121102997Y-95516006D01*
X121102996Y-95516005D01*
X121102994Y-95516004D01*
X121020143Y-95473789D01*
X120941639Y-95433788D01*
X120941636Y-95433787D01*
X120769410Y-95377829D01*
X120637728Y-95356972D01*
X120574594Y-95327042D01*
X120537663Y-95267731D01*
X120538661Y-95197868D01*
X120577271Y-95139636D01*
X120641235Y-95111522D01*
X120657120Y-95110499D01*
X121394864Y-95110499D01*
X121394879Y-95110497D01*
X121394882Y-95110497D01*
X121419987Y-95107586D01*
X121419988Y-95107585D01*
X121419991Y-95107585D01*
X121522765Y-95062206D01*
X121602206Y-94982765D01*
X121647585Y-94879991D01*
X121650500Y-94854865D01*
X121650499Y-93065136D01*
X121650499Y-93065135D01*
X121650499Y-93065130D01*
X121647586Y-93040012D01*
X121647585Y-93040010D01*
X121647585Y-93040009D01*
X121602206Y-92937235D01*
X121522765Y-92857794D01*
X121510578Y-92852413D01*
X121419992Y-92812415D01*
X121394865Y-92809500D01*
X119605143Y-92809500D01*
X119605117Y-92809502D01*
X119580012Y-92812413D01*
X119580008Y-92812415D01*
X119477235Y-92857793D01*
X119397794Y-92937234D01*
X119352415Y-93040006D01*
X119352415Y-93040008D01*
X119349500Y-93065131D01*
X119349500Y-94854856D01*
X119349502Y-94854882D01*
X119352413Y-94879987D01*
X119352415Y-94879991D01*
X119397793Y-94982764D01*
X119397794Y-94982765D01*
X119477235Y-95062206D01*
X119580009Y-95107585D01*
X119605135Y-95110500D01*
X120342873Y-95110499D01*
X120409910Y-95130183D01*
X120455665Y-95182987D01*
X120465609Y-95252146D01*
X120436584Y-95315702D01*
X120377806Y-95353476D01*
X120362270Y-95356972D01*
X120230589Y-95377829D01*
X120058363Y-95433787D01*
X120058360Y-95433788D01*
X119897002Y-95516006D01*
X119750505Y-95622441D01*
X119750500Y-95622445D01*
X119622445Y-95750500D01*
X119622441Y-95750505D01*
X119516006Y-95897002D01*
X119433788Y-96058360D01*
X119433787Y-96058363D01*
X119377829Y-96230589D01*
X119349500Y-96409448D01*
X119349500Y-96590551D01*
X119377829Y-96769410D01*
X119433787Y-96941636D01*
X119433788Y-96941639D01*
X119516006Y-97102997D01*
X119622441Y-97249494D01*
X119622445Y-97249499D01*
X119750500Y-97377554D01*
X119750505Y-97377558D01*
X119805561Y-97417558D01*
X119897006Y-97483996D01*
X119975504Y-97523993D01*
X120028684Y-97551090D01*
X120079480Y-97599065D01*
X120096275Y-97666886D01*
X120073737Y-97733021D01*
X120019022Y-97776472D01*
X120010708Y-97779506D01*
X119981781Y-97788905D01*
X119792439Y-97885380D01*
X119738282Y-97924727D01*
X119738282Y-97924728D01*
X120370591Y-98557037D01*
X120307007Y-98574075D01*
X120192993Y-98639901D01*
X120099901Y-98732993D01*
X120034075Y-98847007D01*
X120017037Y-98910591D01*
X119384728Y-98278282D01*
X119384727Y-98278282D01*
X119345380Y-98332439D01*
X119248904Y-98521782D01*
X119183242Y-98723869D01*
X119183242Y-98723872D01*
X119150000Y-98933753D01*
X116850000Y-98933753D01*
X116816757Y-98723872D01*
X116816757Y-98723869D01*
X116751095Y-98521782D01*
X116654624Y-98332449D01*
X116615270Y-98278282D01*
X116615269Y-98278282D01*
X115982962Y-98910590D01*
X115965925Y-98847007D01*
X115900099Y-98732993D01*
X115807007Y-98639901D01*
X115692993Y-98574075D01*
X115629409Y-98557037D01*
X116261716Y-97924728D01*
X116207550Y-97885375D01*
X116018217Y-97788904D01*
X115989292Y-97779506D01*
X115931616Y-97740068D01*
X115904418Y-97675710D01*
X115916333Y-97606863D01*
X115963577Y-97555388D01*
X115971315Y-97551090D01*
X116102994Y-97483996D01*
X116249501Y-97377553D01*
X116377553Y-97249501D01*
X116483996Y-97102994D01*
X116566211Y-96941639D01*
X116622171Y-96769409D01*
X116644165Y-96630546D01*
X116650500Y-96590551D01*
X116650500Y-96409448D01*
X116628506Y-96270589D01*
X116622171Y-96230591D01*
X116566211Y-96058361D01*
X116566211Y-96058360D01*
X116504375Y-95937002D01*
X116483996Y-95897006D01*
X116406619Y-95790505D01*
X116377558Y-95750505D01*
X116377554Y-95750500D01*
X116249499Y-95622445D01*
X116249494Y-95622441D01*
X116102997Y-95516006D01*
X116102996Y-95516005D01*
X116102994Y-95516004D01*
X116020143Y-95473789D01*
X115941639Y-95433788D01*
X115941636Y-95433787D01*
X115769410Y-95377829D01*
X115637728Y-95356972D01*
X115574594Y-95327042D01*
X115537663Y-95267731D01*
X115538661Y-95197868D01*
X115577271Y-95139636D01*
X115641235Y-95111522D01*
X115657120Y-95110499D01*
X116394864Y-95110499D01*
X116394879Y-95110497D01*
X116394882Y-95110497D01*
X116419987Y-95107586D01*
X116419988Y-95107585D01*
X116419991Y-95107585D01*
X116522765Y-95062206D01*
X116602206Y-94982765D01*
X116647585Y-94879991D01*
X116650500Y-94854865D01*
X116650499Y-93065136D01*
X116650499Y-93065135D01*
X116650499Y-93065130D01*
X116647586Y-93040012D01*
X116647585Y-93040010D01*
X116647585Y-93040009D01*
X116602206Y-92937235D01*
X116522765Y-92857794D01*
X116510578Y-92852413D01*
X116419992Y-92812415D01*
X116394865Y-92809500D01*
X114605143Y-92809500D01*
X114605117Y-92809502D01*
X114580012Y-92812413D01*
X114580008Y-92812415D01*
X114477235Y-92857793D01*
X114397794Y-92937234D01*
X114352415Y-93040006D01*
X114352415Y-93040008D01*
X114349500Y-93065131D01*
X114349500Y-94854856D01*
X114349502Y-94854882D01*
X114352413Y-94879987D01*
X114352415Y-94879991D01*
X114397793Y-94982764D01*
X114397794Y-94982765D01*
X114477235Y-95062206D01*
X114580009Y-95107585D01*
X114605135Y-95110500D01*
X115342873Y-95110499D01*
X115409910Y-95130183D01*
X115455665Y-95182987D01*
X115465609Y-95252146D01*
X115436584Y-95315702D01*
X115377806Y-95353476D01*
X115362270Y-95356972D01*
X115230589Y-95377829D01*
X115058363Y-95433787D01*
X115058360Y-95433788D01*
X114897002Y-95516006D01*
X114750505Y-95622441D01*
X114750500Y-95622445D01*
X114622445Y-95750500D01*
X114622441Y-95750505D01*
X114516006Y-95897002D01*
X114433788Y-96058360D01*
X114433787Y-96058363D01*
X114377829Y-96230589D01*
X114349500Y-96409448D01*
X114349500Y-96590551D01*
X114377829Y-96769410D01*
X114433787Y-96941636D01*
X114433788Y-96941639D01*
X114516006Y-97102997D01*
X114622441Y-97249494D01*
X114622445Y-97249499D01*
X114750500Y-97377554D01*
X114750505Y-97377558D01*
X114805561Y-97417558D01*
X114897006Y-97483996D01*
X114975504Y-97523993D01*
X115028684Y-97551090D01*
X115079480Y-97599065D01*
X115096275Y-97666886D01*
X115073737Y-97733021D01*
X115019022Y-97776472D01*
X115010708Y-97779506D01*
X114981781Y-97788905D01*
X114792439Y-97885380D01*
X114738282Y-97924727D01*
X114738282Y-97924728D01*
X115370591Y-98557037D01*
X115307007Y-98574075D01*
X115192993Y-98639901D01*
X115099901Y-98732993D01*
X115034075Y-98847007D01*
X115017037Y-98910591D01*
X114384728Y-98278282D01*
X114384727Y-98278282D01*
X114345380Y-98332439D01*
X114248904Y-98521782D01*
X114183242Y-98723869D01*
X114183242Y-98723872D01*
X114150000Y-98933753D01*
X111843664Y-98933753D01*
X111816757Y-98763872D01*
X111816757Y-98763869D01*
X111751095Y-98561782D01*
X111654624Y-98372449D01*
X111615270Y-98318282D01*
X111615269Y-98318282D01*
X110982962Y-98950590D01*
X110965925Y-98887007D01*
X110900099Y-98772993D01*
X110807007Y-98679901D01*
X110692993Y-98614075D01*
X110629409Y-98597037D01*
X111261716Y-97964728D01*
X111207550Y-97925375D01*
X111018217Y-97828904D01*
X110989292Y-97819506D01*
X110931616Y-97780068D01*
X110904418Y-97715710D01*
X110916333Y-97646863D01*
X110963577Y-97595388D01*
X110971315Y-97591090D01*
X111102994Y-97523996D01*
X111249501Y-97417553D01*
X111377553Y-97289501D01*
X111483996Y-97142994D01*
X111566211Y-96981639D01*
X111622171Y-96809409D01*
X111642755Y-96679448D01*
X111650500Y-96630551D01*
X111650500Y-96449448D01*
X111631321Y-96328360D01*
X111622171Y-96270591D01*
X111588515Y-96167006D01*
X111566212Y-96098363D01*
X111566211Y-96098360D01*
X111526541Y-96020505D01*
X111483996Y-95937006D01*
X111470396Y-95918287D01*
X111377558Y-95790505D01*
X111377554Y-95790500D01*
X111249499Y-95662445D01*
X111249494Y-95662441D01*
X111102997Y-95556006D01*
X111102996Y-95556005D01*
X111102994Y-95556004D01*
X111024494Y-95516006D01*
X110941639Y-95473788D01*
X110941636Y-95473787D01*
X110769410Y-95417829D01*
X110637728Y-95396972D01*
X110574594Y-95367042D01*
X110537663Y-95307731D01*
X110538661Y-95237868D01*
X110577271Y-95179636D01*
X110641235Y-95151522D01*
X110657120Y-95150499D01*
X111394864Y-95150499D01*
X111394879Y-95150497D01*
X111394882Y-95150497D01*
X111419987Y-95147586D01*
X111419988Y-95147585D01*
X111419991Y-95147585D01*
X111522765Y-95102206D01*
X111602206Y-95022765D01*
X111647585Y-94919991D01*
X111650500Y-94894865D01*
X111650499Y-93105136D01*
X111647585Y-93080009D01*
X111602206Y-92977235D01*
X111522765Y-92897794D01*
X111521390Y-92897187D01*
X111419992Y-92852415D01*
X111394865Y-92849500D01*
X109605143Y-92849500D01*
X109605117Y-92849502D01*
X109580012Y-92852413D01*
X109580008Y-92852415D01*
X109477235Y-92897793D01*
X109397794Y-92977234D01*
X109352415Y-93080006D01*
X109352415Y-93080008D01*
X109349500Y-93105131D01*
X109349500Y-94894856D01*
X109349502Y-94894882D01*
X109352413Y-94919987D01*
X109352415Y-94919991D01*
X109397793Y-95022764D01*
X109397794Y-95022765D01*
X109477235Y-95102206D01*
X109580009Y-95147585D01*
X109605135Y-95150500D01*
X110342873Y-95150499D01*
X110409910Y-95170183D01*
X110455665Y-95222987D01*
X110465609Y-95292146D01*
X110436584Y-95355702D01*
X110377806Y-95393476D01*
X110362270Y-95396972D01*
X110230589Y-95417829D01*
X110058363Y-95473787D01*
X110058360Y-95473788D01*
X109897002Y-95556006D01*
X109750505Y-95662441D01*
X109750500Y-95662445D01*
X109622445Y-95790500D01*
X109622441Y-95790505D01*
X109516006Y-95937002D01*
X109433788Y-96098360D01*
X109433787Y-96098363D01*
X109377829Y-96270589D01*
X109349500Y-96449448D01*
X109349500Y-96630551D01*
X109377829Y-96809410D01*
X109433787Y-96981636D01*
X109433788Y-96981639D01*
X109516006Y-97142997D01*
X109622441Y-97289494D01*
X109622445Y-97289499D01*
X109750500Y-97417554D01*
X109750505Y-97417558D01*
X109841946Y-97483993D01*
X109897006Y-97523996D01*
X109979857Y-97566211D01*
X110028684Y-97591090D01*
X110079480Y-97639065D01*
X110096275Y-97706886D01*
X110073737Y-97773021D01*
X110019022Y-97816472D01*
X110010708Y-97819506D01*
X109981781Y-97828905D01*
X109792439Y-97925380D01*
X109738282Y-97964727D01*
X109738282Y-97964728D01*
X110370591Y-98597037D01*
X110307007Y-98614075D01*
X110192993Y-98679901D01*
X110099901Y-98772993D01*
X110034075Y-98887007D01*
X110017037Y-98950591D01*
X109384728Y-98318282D01*
X109384727Y-98318282D01*
X109345380Y-98372439D01*
X109248904Y-98561782D01*
X109183242Y-98763869D01*
X109183242Y-98763872D01*
X109150000Y-98973753D01*
X99500500Y-98973753D01*
X99500500Y-90792155D01*
X130650000Y-90792155D01*
X130650000Y-91440000D01*
X131566988Y-91440000D01*
X131534075Y-91497007D01*
X131500000Y-91624174D01*
X131500000Y-91755826D01*
X131534075Y-91882993D01*
X131566988Y-91940000D01*
X130650000Y-91940000D01*
X130650000Y-92587844D01*
X130656401Y-92647372D01*
X130656403Y-92647379D01*
X130706645Y-92782086D01*
X130706649Y-92782093D01*
X130792809Y-92897187D01*
X130792812Y-92897190D01*
X130907906Y-92983350D01*
X130907913Y-92983354D01*
X131042620Y-93033596D01*
X131042627Y-93033598D01*
X131102155Y-93039999D01*
X131102172Y-93040000D01*
X131298913Y-93040000D01*
X131365952Y-93059685D01*
X131411707Y-93112489D01*
X131421651Y-93181647D01*
X131392626Y-93245203D01*
X131371798Y-93264318D01*
X131250504Y-93352441D01*
X131122445Y-93480500D01*
X131122441Y-93480505D01*
X131016006Y-93627002D01*
X130933788Y-93788360D01*
X130933787Y-93788363D01*
X130877829Y-93960589D01*
X130849500Y-94139448D01*
X130849500Y-94320551D01*
X130877829Y-94499410D01*
X130933787Y-94671636D01*
X130933788Y-94671639D01*
X131016006Y-94832997D01*
X131122441Y-94979494D01*
X131122445Y-94979499D01*
X131250500Y-95107554D01*
X131250505Y-95107558D01*
X131374808Y-95197868D01*
X131397006Y-95213996D01*
X131502466Y-95267731D01*
X131558360Y-95296211D01*
X131558363Y-95296212D01*
X131593816Y-95307731D01*
X131730591Y-95352171D01*
X131803639Y-95363740D01*
X131890678Y-95377527D01*
X131953813Y-95407456D01*
X131990744Y-95466768D01*
X131989746Y-95536631D01*
X131951136Y-95594863D01*
X131890678Y-95622473D01*
X131730589Y-95647829D01*
X131558363Y-95703787D01*
X131558360Y-95703788D01*
X131397002Y-95786006D01*
X131250505Y-95892441D01*
X131250500Y-95892445D01*
X131122445Y-96020500D01*
X131122441Y-96020505D01*
X131016006Y-96167002D01*
X130933788Y-96328360D01*
X130933787Y-96328363D01*
X130877829Y-96500589D01*
X130849500Y-96679448D01*
X130849500Y-96860551D01*
X130877829Y-97039410D01*
X130933787Y-97211636D01*
X130933788Y-97211639D01*
X131016006Y-97372997D01*
X131122441Y-97519494D01*
X131122445Y-97519499D01*
X131250500Y-97647554D01*
X131250505Y-97647558D01*
X131368136Y-97733021D01*
X131397006Y-97753996D01*
X131502484Y-97807740D01*
X131558360Y-97836211D01*
X131558363Y-97836212D01*
X131644476Y-97864191D01*
X131730591Y-97892171D01*
X131803639Y-97903740D01*
X131890678Y-97917527D01*
X131953813Y-97947456D01*
X131990744Y-98006768D01*
X131989746Y-98076631D01*
X131951136Y-98134863D01*
X131890678Y-98162473D01*
X131730589Y-98187829D01*
X131558363Y-98243787D01*
X131558360Y-98243788D01*
X131397002Y-98326006D01*
X131250505Y-98432441D01*
X131250500Y-98432445D01*
X131122445Y-98560500D01*
X131122441Y-98560505D01*
X131016006Y-98707002D01*
X130933788Y-98868360D01*
X130933787Y-98868363D01*
X130877829Y-99040589D01*
X130849500Y-99219448D01*
X130849500Y-99400551D01*
X130877829Y-99579410D01*
X130933787Y-99751636D01*
X130933788Y-99751639D01*
X131016006Y-99912997D01*
X131122441Y-100059494D01*
X131122445Y-100059499D01*
X131250500Y-100187554D01*
X131250505Y-100187558D01*
X131315284Y-100234622D01*
X131397006Y-100293996D01*
X131502484Y-100347740D01*
X131558360Y-100376211D01*
X131558363Y-100376212D01*
X131621596Y-100396757D01*
X131730591Y-100432171D01*
X131813429Y-100445291D01*
X131909449Y-100460500D01*
X131909454Y-100460500D01*
X132090551Y-100460500D01*
X132177259Y-100446765D01*
X132269409Y-100432171D01*
X132441639Y-100376211D01*
X132602994Y-100293996D01*
X132749501Y-100187553D01*
X132877553Y-100059501D01*
X132983996Y-99912994D01*
X133066211Y-99751639D01*
X133122171Y-99579409D01*
X133137900Y-99480099D01*
X133150500Y-99400551D01*
X133150500Y-99219448D01*
X133128413Y-99080001D01*
X133122171Y-99040591D01*
X133087458Y-98933753D01*
X133066212Y-98868363D01*
X133066211Y-98868360D01*
X133017618Y-98772993D01*
X132983996Y-98707006D01*
X132916478Y-98614075D01*
X132877558Y-98560505D01*
X132877554Y-98560500D01*
X132749499Y-98432445D01*
X132749494Y-98432441D01*
X132602997Y-98326006D01*
X132602996Y-98326005D01*
X132602994Y-98326004D01*
X132551300Y-98299664D01*
X132441639Y-98243788D01*
X132441636Y-98243787D01*
X132269410Y-98187829D01*
X132109321Y-98162473D01*
X132046186Y-98132544D01*
X132009255Y-98073232D01*
X132010253Y-98003370D01*
X132048863Y-97945137D01*
X132109321Y-97917527D01*
X132179425Y-97906422D01*
X132269409Y-97892171D01*
X132441639Y-97836211D01*
X132602994Y-97753996D01*
X132749501Y-97647553D01*
X132877553Y-97519501D01*
X132983996Y-97372994D01*
X133066211Y-97211639D01*
X133122171Y-97039409D01*
X133137657Y-96941636D01*
X133150500Y-96860551D01*
X133150500Y-96679448D01*
X133134019Y-96575397D01*
X133122171Y-96500591D01*
X133066211Y-96328361D01*
X133066211Y-96328360D01*
X133036776Y-96270591D01*
X132983996Y-96167006D01*
X132905063Y-96058363D01*
X132877558Y-96020505D01*
X132877554Y-96020500D01*
X132749499Y-95892445D01*
X132749494Y-95892441D01*
X132602997Y-95786006D01*
X132602996Y-95786005D01*
X132602994Y-95786004D01*
X132533312Y-95750499D01*
X132441639Y-95703788D01*
X132441636Y-95703787D01*
X132269410Y-95647829D01*
X132109321Y-95622473D01*
X132046186Y-95592544D01*
X132009255Y-95533232D01*
X132010253Y-95463370D01*
X132048863Y-95405137D01*
X132109321Y-95377527D01*
X132179425Y-95366422D01*
X132269409Y-95352171D01*
X132441639Y-95296211D01*
X132602994Y-95213996D01*
X132749501Y-95107553D01*
X132877553Y-94979501D01*
X132983996Y-94832994D01*
X133066211Y-94671639D01*
X133122171Y-94499409D01*
X133136765Y-94407259D01*
X133150500Y-94320551D01*
X133150500Y-94139448D01*
X133134019Y-94035397D01*
X133122171Y-93960591D01*
X133066211Y-93788361D01*
X133066211Y-93788360D01*
X133037740Y-93732484D01*
X132983996Y-93627006D01*
X132970396Y-93608287D01*
X132877558Y-93480505D01*
X132877554Y-93480500D01*
X132749495Y-93352441D01*
X132628202Y-93264318D01*
X132585536Y-93208989D01*
X132579557Y-93139375D01*
X132612162Y-93077580D01*
X132673001Y-93043223D01*
X132701087Y-93040000D01*
X132897828Y-93040000D01*
X132897844Y-93039999D01*
X132957372Y-93033598D01*
X132957379Y-93033596D01*
X133092086Y-92983354D01*
X133092093Y-92983350D01*
X133207187Y-92897190D01*
X133207190Y-92897187D01*
X133293350Y-92782093D01*
X133293354Y-92782086D01*
X133343596Y-92647379D01*
X133343598Y-92647372D01*
X133349999Y-92587844D01*
X133350000Y-92587827D01*
X133350000Y-91940000D01*
X132433012Y-91940000D01*
X132465925Y-91882993D01*
X132500000Y-91755826D01*
X132500000Y-91624174D01*
X132465925Y-91497007D01*
X132433012Y-91440000D01*
X133350000Y-91440000D01*
X133350000Y-90792172D01*
X133349999Y-90792155D01*
X133343598Y-90732627D01*
X133343596Y-90732620D01*
X133293354Y-90597913D01*
X133293350Y-90597906D01*
X133207190Y-90482812D01*
X133207187Y-90482809D01*
X133092093Y-90396649D01*
X133092086Y-90396645D01*
X132957379Y-90346403D01*
X132957372Y-90346401D01*
X132897844Y-90340000D01*
X132250000Y-90340000D01*
X132250000Y-91256988D01*
X132192993Y-91224075D01*
X132065826Y-91190000D01*
X131934174Y-91190000D01*
X131807007Y-91224075D01*
X131750000Y-91256988D01*
X131750000Y-90340000D01*
X131102155Y-90340000D01*
X131042627Y-90346401D01*
X131042620Y-90346403D01*
X130907913Y-90396645D01*
X130907906Y-90396649D01*
X130792812Y-90482809D01*
X130792809Y-90482812D01*
X130706649Y-90597906D01*
X130706645Y-90597913D01*
X130656403Y-90732620D01*
X130656401Y-90732627D01*
X130650000Y-90792155D01*
X99500500Y-90792155D01*
X99500500Y-72568995D01*
X100469499Y-72568995D01*
X100496418Y-72704322D01*
X100496421Y-72704332D01*
X100549221Y-72831804D01*
X100549228Y-72831817D01*
X100625885Y-72946541D01*
X100625888Y-72946545D01*
X100723454Y-73044111D01*
X100723458Y-73044114D01*
X100838182Y-73120771D01*
X100838195Y-73120778D01*
X100965667Y-73173578D01*
X100965672Y-73173580D01*
X100965676Y-73173580D01*
X100965677Y-73173581D01*
X101101004Y-73200500D01*
X101101007Y-73200500D01*
X101238995Y-73200500D01*
X101330041Y-73182389D01*
X101374328Y-73173580D01*
X101501811Y-73120775D01*
X101616542Y-73044114D01*
X101714114Y-72946542D01*
X101790775Y-72831811D01*
X101843580Y-72704328D01*
X101852389Y-72660041D01*
X101870500Y-72568995D01*
X101870500Y-72431004D01*
X101843581Y-72295677D01*
X101843580Y-72295676D01*
X101843580Y-72295672D01*
X101834974Y-72274895D01*
X101790778Y-72168195D01*
X101790771Y-72168182D01*
X101714114Y-72053458D01*
X101714111Y-72053454D01*
X101616545Y-71955888D01*
X101616541Y-71955885D01*
X101501817Y-71879228D01*
X101501804Y-71879221D01*
X101374332Y-71826421D01*
X101374322Y-71826418D01*
X101238995Y-71799500D01*
X101238993Y-71799500D01*
X101101007Y-71799500D01*
X101101005Y-71799500D01*
X100965677Y-71826418D01*
X100965667Y-71826421D01*
X100838195Y-71879221D01*
X100838182Y-71879228D01*
X100723458Y-71955885D01*
X100723454Y-71955888D01*
X100625888Y-72053454D01*
X100625885Y-72053458D01*
X100549228Y-72168182D01*
X100549221Y-72168195D01*
X100496421Y-72295667D01*
X100496418Y-72295677D01*
X100469500Y-72431004D01*
X100469500Y-72431007D01*
X100469500Y-72568993D01*
X100469500Y-72568995D01*
X100469499Y-72568995D01*
X99500500Y-72568995D01*
X99500500Y-69568995D01*
X100469499Y-69568995D01*
X100496418Y-69704322D01*
X100496421Y-69704332D01*
X100549221Y-69831804D01*
X100549228Y-69831817D01*
X100625885Y-69946541D01*
X100625888Y-69946545D01*
X100723454Y-70044111D01*
X100723458Y-70044114D01*
X100838182Y-70120771D01*
X100838195Y-70120778D01*
X100965667Y-70173578D01*
X100965672Y-70173580D01*
X100965676Y-70173580D01*
X100965677Y-70173581D01*
X101101004Y-70200500D01*
X101101007Y-70200500D01*
X101238995Y-70200500D01*
X101330041Y-70182389D01*
X101374328Y-70173580D01*
X101501811Y-70120775D01*
X101616542Y-70044114D01*
X101714114Y-69946542D01*
X101790775Y-69831811D01*
X101843580Y-69704328D01*
X101870500Y-69568993D01*
X101870500Y-69431007D01*
X101870500Y-69431004D01*
X101843581Y-69295677D01*
X101843580Y-69295676D01*
X101843580Y-69295672D01*
X101843578Y-69295667D01*
X101790778Y-69168195D01*
X101790771Y-69168182D01*
X101717174Y-69058037D01*
X101714114Y-69053458D01*
X101714111Y-69053454D01*
X101657930Y-68997273D01*
X111549500Y-68997273D01*
X111549500Y-74780544D01*
X111576793Y-74882407D01*
X111603156Y-74928068D01*
X111629520Y-74973731D01*
X112026269Y-75370480D01*
X112117594Y-75423207D01*
X112219455Y-75450500D01*
X114995054Y-75450500D01*
X115062093Y-75470185D01*
X115082735Y-75486819D01*
X115126436Y-75530520D01*
X115126438Y-75530521D01*
X115126442Y-75530524D01*
X115263361Y-75609573D01*
X115263368Y-75609577D01*
X115416095Y-75650500D01*
X115416097Y-75650500D01*
X115574207Y-75650500D01*
X115574209Y-75650500D01*
X115726936Y-75609577D01*
X115863868Y-75530520D01*
X115975672Y-75418716D01*
X116054729Y-75281784D01*
X116095652Y-75129057D01*
X116095652Y-74970943D01*
X116054729Y-74818216D01*
X116032979Y-74780544D01*
X115975676Y-74681290D01*
X115975670Y-74681282D01*
X115863869Y-74569481D01*
X115863861Y-74569475D01*
X115726942Y-74490426D01*
X115726938Y-74490424D01*
X115726936Y-74490423D01*
X115574209Y-74449500D01*
X115416095Y-74449500D01*
X115263368Y-74490423D01*
X115263361Y-74490426D01*
X115126442Y-74569475D01*
X115126434Y-74569481D01*
X115082735Y-74613181D01*
X115021412Y-74646666D01*
X114995054Y-74649500D01*
X113224500Y-74649500D01*
X113157461Y-74629815D01*
X113111706Y-74577011D01*
X113100500Y-74525500D01*
X113100500Y-74420945D01*
X113100500Y-74420943D01*
X113059577Y-74268216D01*
X113059573Y-74268209D01*
X112980524Y-74131290D01*
X112980518Y-74131282D01*
X112936819Y-74087583D01*
X112903334Y-74026260D01*
X112900500Y-73999902D01*
X112900500Y-73549098D01*
X112920185Y-73482059D01*
X112972989Y-73436304D01*
X113042147Y-73426360D01*
X113105703Y-73455385D01*
X113112181Y-73461417D01*
X113131284Y-73480520D01*
X113131286Y-73480521D01*
X113131290Y-73480524D01*
X113268209Y-73559573D01*
X113268216Y-73559577D01*
X113420943Y-73600500D01*
X113420945Y-73600500D01*
X113579055Y-73600500D01*
X113579057Y-73600500D01*
X113731784Y-73559577D01*
X113868716Y-73480520D01*
X113980520Y-73368716D01*
X114059577Y-73231784D01*
X114100500Y-73079057D01*
X114100500Y-73079044D01*
X114101441Y-73071901D01*
X114129707Y-73008003D01*
X114136688Y-73000414D01*
X114650284Y-72486819D01*
X114711607Y-72453334D01*
X114737965Y-72450500D01*
X115550069Y-72450500D01*
X115617108Y-72470185D01*
X115625557Y-72476125D01*
X115631281Y-72480517D01*
X115631284Y-72480520D01*
X115631287Y-72480521D01*
X115631290Y-72480524D01*
X115731853Y-72538583D01*
X115768216Y-72559577D01*
X115920943Y-72600500D01*
X115920945Y-72600500D01*
X116079055Y-72600500D01*
X116079057Y-72600500D01*
X116231784Y-72559577D01*
X116368716Y-72480520D01*
X116428293Y-72420943D01*
X128399500Y-72420943D01*
X128399500Y-72579057D01*
X128433068Y-72704332D01*
X128440423Y-72731783D01*
X128440426Y-72731790D01*
X128519475Y-72868709D01*
X128519479Y-72868714D01*
X128519480Y-72868716D01*
X128631284Y-72980520D01*
X128631286Y-72980521D01*
X128631290Y-72980524D01*
X128775254Y-73063641D01*
X128774895Y-73064262D01*
X128807570Y-73086095D01*
X129661986Y-73940510D01*
X129731286Y-73980520D01*
X129787515Y-74012984D01*
X129927525Y-74050500D01*
X129927526Y-74050500D01*
X130072475Y-74050500D01*
X131721637Y-74050500D01*
X131760179Y-74058165D01*
X131760365Y-74057473D01*
X131768214Y-74059576D01*
X131768216Y-74059577D01*
X131920943Y-74100500D01*
X131920945Y-74100500D01*
X132079055Y-74100500D01*
X132079057Y-74100500D01*
X132231784Y-74059577D01*
X132368716Y-73980520D01*
X132480520Y-73868716D01*
X132559577Y-73731784D01*
X132600500Y-73579057D01*
X132600500Y-73420943D01*
X132559577Y-73268216D01*
X132504940Y-73173581D01*
X132480524Y-73131290D01*
X132480518Y-73131282D01*
X132368717Y-73019481D01*
X132368709Y-73019475D01*
X132231790Y-72940426D01*
X132231786Y-72940424D01*
X132231784Y-72940423D01*
X132079057Y-72899500D01*
X131920943Y-72899500D01*
X131768216Y-72940423D01*
X131768214Y-72940423D01*
X131760365Y-72942527D01*
X131760179Y-72941834D01*
X131721637Y-72949500D01*
X130279386Y-72949500D01*
X130212347Y-72929815D01*
X130191705Y-72913181D01*
X129586095Y-72307570D01*
X129564262Y-72274895D01*
X129563641Y-72275254D01*
X129480524Y-72131290D01*
X129480518Y-72131282D01*
X129368717Y-72019481D01*
X129368709Y-72019475D01*
X129231790Y-71940426D01*
X129231786Y-71940424D01*
X129231784Y-71940423D01*
X129079057Y-71899500D01*
X128920943Y-71899500D01*
X128768216Y-71940423D01*
X128768209Y-71940426D01*
X128631290Y-72019475D01*
X128631282Y-72019481D01*
X128519481Y-72131282D01*
X128519475Y-72131290D01*
X128440426Y-72268209D01*
X128440423Y-72268216D01*
X128399500Y-72420943D01*
X116428293Y-72420943D01*
X116480520Y-72368716D01*
X116484352Y-72362078D01*
X116490855Y-72350816D01*
X116522689Y-72295677D01*
X116559577Y-72231784D01*
X116600500Y-72079057D01*
X116600500Y-71920943D01*
X116559577Y-71768216D01*
X116485270Y-71639511D01*
X116480524Y-71631290D01*
X116480518Y-71631282D01*
X116368717Y-71519481D01*
X116368709Y-71519475D01*
X116231790Y-71440426D01*
X116231786Y-71440424D01*
X116231784Y-71440423D01*
X116079057Y-71399500D01*
X115920943Y-71399500D01*
X115768216Y-71440423D01*
X115768209Y-71440426D01*
X115631290Y-71519475D01*
X115625557Y-71523875D01*
X115560388Y-71549070D01*
X115550069Y-71549500D01*
X114440691Y-71549500D01*
X114371944Y-71567920D01*
X114326112Y-71580201D01*
X114326107Y-71580204D01*
X114223393Y-71639505D01*
X114223385Y-71639511D01*
X113499597Y-72363299D01*
X113438274Y-72396784D01*
X113428107Y-72398556D01*
X113420949Y-72399498D01*
X113268216Y-72440423D01*
X113268209Y-72440426D01*
X113131290Y-72519475D01*
X113131282Y-72519481D01*
X113112181Y-72538583D01*
X113050858Y-72572068D01*
X112981166Y-72567084D01*
X112925233Y-72525212D01*
X112900816Y-72459748D01*
X112900500Y-72450902D01*
X112900500Y-69717255D01*
X112920185Y-69650216D01*
X112936819Y-69629574D01*
X113687819Y-68878574D01*
X113749142Y-68845089D01*
X113818834Y-68850073D01*
X113874767Y-68891945D01*
X113899184Y-68957409D01*
X113899500Y-68966255D01*
X113899500Y-69079057D01*
X113923385Y-69168195D01*
X113940423Y-69231783D01*
X113940426Y-69231790D01*
X114019475Y-69368709D01*
X114019479Y-69368714D01*
X114019480Y-69368716D01*
X114131284Y-69480520D01*
X114131286Y-69480521D01*
X114131290Y-69480524D01*
X114268209Y-69559573D01*
X114268216Y-69559577D01*
X114420943Y-69600500D01*
X114420945Y-69600500D01*
X114579055Y-69600500D01*
X114579057Y-69600500D01*
X114731784Y-69559577D01*
X114868716Y-69480520D01*
X114980520Y-69368716D01*
X115059577Y-69231784D01*
X115100500Y-69079057D01*
X115100500Y-69017255D01*
X115120185Y-68950216D01*
X115136819Y-68929574D01*
X115239975Y-68826418D01*
X115370480Y-68695913D01*
X115381519Y-68676793D01*
X115423207Y-68604587D01*
X115450500Y-68502727D01*
X115450500Y-63728992D01*
X125254500Y-63728992D01*
X125254500Y-64481007D01*
X125293907Y-64679119D01*
X125293909Y-64679127D01*
X125371212Y-64865752D01*
X125371217Y-64865762D01*
X125483441Y-65033718D01*
X125626281Y-65176558D01*
X125794237Y-65288782D01*
X125794241Y-65288784D01*
X125794244Y-65288786D01*
X125980873Y-65366091D01*
X126178992Y-65405499D01*
X126178996Y-65405500D01*
X126178997Y-65405500D01*
X126381004Y-65405500D01*
X126381005Y-65405499D01*
X126579127Y-65366091D01*
X126765756Y-65288786D01*
X126933718Y-65176558D01*
X127076558Y-65033718D01*
X127188786Y-64865756D01*
X127266091Y-64679127D01*
X127305500Y-64481003D01*
X127305500Y-63879459D01*
X127325185Y-63812420D01*
X127377989Y-63766665D01*
X127429915Y-63758020D01*
X127429915Y-63755500D01*
X127573995Y-63755500D01*
X127665041Y-63737389D01*
X127709328Y-63728580D01*
X127836811Y-63675775D01*
X127951542Y-63599114D01*
X128049114Y-63501542D01*
X128125775Y-63386811D01*
X128178580Y-63259328D01*
X128205500Y-63123995D01*
X131804499Y-63123995D01*
X131831418Y-63259322D01*
X131831421Y-63259332D01*
X131884221Y-63386804D01*
X131884228Y-63386817D01*
X131960885Y-63501541D01*
X131960888Y-63501545D01*
X132058454Y-63599111D01*
X132058458Y-63599114D01*
X132173182Y-63675771D01*
X132173195Y-63675778D01*
X132300667Y-63728578D01*
X132300672Y-63728580D01*
X132300676Y-63728580D01*
X132300677Y-63728581D01*
X132436004Y-63755500D01*
X132580085Y-63755500D01*
X132580085Y-63758289D01*
X132636959Y-63769058D01*
X132687683Y-63817108D01*
X132704500Y-63879459D01*
X132704500Y-64481007D01*
X132743907Y-64679119D01*
X132743909Y-64679127D01*
X132821212Y-64865752D01*
X132821217Y-64865762D01*
X132933441Y-65033718D01*
X133076281Y-65176558D01*
X133244237Y-65288782D01*
X133244241Y-65288784D01*
X133244244Y-65288786D01*
X133430873Y-65366091D01*
X133628992Y-65405499D01*
X133628996Y-65405500D01*
X133628997Y-65405500D01*
X133831004Y-65405500D01*
X133831005Y-65405499D01*
X134029127Y-65366091D01*
X134215756Y-65288786D01*
X134383718Y-65176558D01*
X134526558Y-65033718D01*
X134638786Y-64865756D01*
X134716091Y-64679127D01*
X134755500Y-64481003D01*
X134755500Y-63728997D01*
X134716091Y-63530873D01*
X134638786Y-63344244D01*
X134638784Y-63344241D01*
X134638782Y-63344237D01*
X134526558Y-63176281D01*
X134383718Y-63033441D01*
X134215762Y-62921217D01*
X134215752Y-62921212D01*
X134029127Y-62843909D01*
X134029119Y-62843907D01*
X133831007Y-62804500D01*
X133831003Y-62804500D01*
X133628997Y-62804500D01*
X133628992Y-62804500D01*
X133430880Y-62843907D01*
X133430868Y-62843910D01*
X133327696Y-62886645D01*
X133258226Y-62894114D01*
X133195747Y-62862838D01*
X133165683Y-62819536D01*
X133125778Y-62723195D01*
X133125771Y-62723182D01*
X133049114Y-62608458D01*
X133049111Y-62608454D01*
X132951545Y-62510888D01*
X132951541Y-62510885D01*
X132836817Y-62434228D01*
X132836804Y-62434221D01*
X132709332Y-62381421D01*
X132709322Y-62381418D01*
X132573995Y-62354500D01*
X132573993Y-62354500D01*
X132436007Y-62354500D01*
X132436005Y-62354500D01*
X132300677Y-62381418D01*
X132300667Y-62381421D01*
X132173195Y-62434221D01*
X132173182Y-62434228D01*
X132058458Y-62510885D01*
X132058454Y-62510888D01*
X131960888Y-62608454D01*
X131960885Y-62608458D01*
X131884228Y-62723182D01*
X131884221Y-62723195D01*
X131831421Y-62850667D01*
X131831418Y-62850677D01*
X131804500Y-62986004D01*
X131804500Y-62986007D01*
X131804500Y-63123993D01*
X131804500Y-63123995D01*
X131804499Y-63123995D01*
X128205500Y-63123995D01*
X128205500Y-63123993D01*
X128205500Y-62986007D01*
X128205500Y-62986004D01*
X128178581Y-62850677D01*
X128178580Y-62850676D01*
X128178580Y-62850672D01*
X128144423Y-62768209D01*
X128125778Y-62723195D01*
X128125771Y-62723182D01*
X128049114Y-62608458D01*
X128049111Y-62608454D01*
X127951545Y-62510888D01*
X127951541Y-62510885D01*
X127836817Y-62434228D01*
X127836804Y-62434221D01*
X127709332Y-62381421D01*
X127709322Y-62381418D01*
X127573995Y-62354500D01*
X127573993Y-62354500D01*
X127436007Y-62354500D01*
X127436005Y-62354500D01*
X127300677Y-62381418D01*
X127300667Y-62381421D01*
X127173195Y-62434221D01*
X127173182Y-62434228D01*
X127058458Y-62510885D01*
X127058454Y-62510888D01*
X126960888Y-62608454D01*
X126960885Y-62608458D01*
X126884228Y-62723182D01*
X126884223Y-62723192D01*
X126844316Y-62819537D01*
X126800475Y-62873940D01*
X126734181Y-62896005D01*
X126682303Y-62886645D01*
X126579131Y-62843910D01*
X126579119Y-62843907D01*
X126381007Y-62804500D01*
X126381003Y-62804500D01*
X126178997Y-62804500D01*
X126178992Y-62804500D01*
X125980880Y-62843907D01*
X125980872Y-62843909D01*
X125794247Y-62921212D01*
X125794237Y-62921217D01*
X125626281Y-63033441D01*
X125483441Y-63176281D01*
X125371217Y-63344237D01*
X125371212Y-63344247D01*
X125293909Y-63530872D01*
X125293907Y-63530880D01*
X125254500Y-63728992D01*
X115450500Y-63728992D01*
X115450500Y-61997273D01*
X115423207Y-61895413D01*
X115370480Y-61804087D01*
X115295913Y-61729520D01*
X115136819Y-61570426D01*
X115103334Y-61509103D01*
X115100500Y-61482745D01*
X115100500Y-61420945D01*
X115100500Y-61420943D01*
X115059577Y-61268216D01*
X115013322Y-61188099D01*
X114980524Y-61131290D01*
X114980518Y-61131282D01*
X114868717Y-61019481D01*
X114868709Y-61019475D01*
X114731790Y-60940426D01*
X114731786Y-60940424D01*
X114731784Y-60940423D01*
X114579057Y-60899500D01*
X114420943Y-60899500D01*
X114268216Y-60940423D01*
X114268209Y-60940426D01*
X114131290Y-61019475D01*
X114131282Y-61019481D01*
X114019481Y-61131282D01*
X114019475Y-61131290D01*
X113940426Y-61268209D01*
X113940423Y-61268216D01*
X113899500Y-61420943D01*
X113899500Y-61579057D01*
X113939817Y-61729520D01*
X113940423Y-61731783D01*
X113940426Y-61731790D01*
X114019475Y-61868709D01*
X114019479Y-61868714D01*
X114019480Y-61868716D01*
X114131284Y-61980520D01*
X114131286Y-61980521D01*
X114131290Y-61980524D01*
X114268209Y-62059573D01*
X114268216Y-62059577D01*
X114420943Y-62100500D01*
X114482745Y-62100500D01*
X114549784Y-62120185D01*
X114570426Y-62136819D01*
X114613181Y-62179574D01*
X114646666Y-62240897D01*
X114649500Y-62267255D01*
X114649500Y-65500500D01*
X114629815Y-65567539D01*
X114577011Y-65613294D01*
X114525500Y-65624500D01*
X114420943Y-65624500D01*
X114268216Y-65665423D01*
X114268209Y-65665426D01*
X114131290Y-65744475D01*
X114131282Y-65744481D01*
X114019481Y-65856282D01*
X114019475Y-65856290D01*
X113940426Y-65993209D01*
X113940423Y-65993216D01*
X113899500Y-66145943D01*
X113899500Y-66304056D01*
X113940423Y-66456783D01*
X113940426Y-66456790D01*
X114019475Y-66593709D01*
X114019481Y-66593717D01*
X114063181Y-66637417D01*
X114096666Y-66698740D01*
X114099500Y-66725098D01*
X114099500Y-66999902D01*
X114079815Y-67066941D01*
X114063181Y-67087583D01*
X114019481Y-67131282D01*
X114019475Y-67131290D01*
X113940426Y-67268209D01*
X113940423Y-67268216D01*
X113899500Y-67420943D01*
X113899500Y-67482745D01*
X113879815Y-67549784D01*
X113863181Y-67570426D01*
X113662181Y-67771426D01*
X113600858Y-67804911D01*
X113531166Y-67799927D01*
X113475233Y-67758055D01*
X113450816Y-67692591D01*
X113450500Y-67683745D01*
X113450500Y-63449930D01*
X113470185Y-63382891D01*
X113476128Y-63374438D01*
X113480512Y-63368723D01*
X113480520Y-63368716D01*
X113559577Y-63231784D01*
X113600500Y-63079057D01*
X113600500Y-62920943D01*
X113559577Y-62768216D01*
X113559573Y-62768209D01*
X113480524Y-62631290D01*
X113480518Y-62631282D01*
X113368717Y-62519481D01*
X113368709Y-62519475D01*
X113231790Y-62440426D01*
X113231786Y-62440424D01*
X113231784Y-62440423D01*
X113079057Y-62399500D01*
X112920943Y-62399500D01*
X112768216Y-62440423D01*
X112768209Y-62440426D01*
X112631290Y-62519475D01*
X112631282Y-62519481D01*
X112519481Y-62631282D01*
X112519475Y-62631290D01*
X112440426Y-62768209D01*
X112440423Y-62768216D01*
X112399500Y-62920943D01*
X112399500Y-63079057D01*
X112425552Y-63176282D01*
X112440423Y-63231783D01*
X112440426Y-63231790D01*
X112519475Y-63368709D01*
X112519481Y-63368717D01*
X112613181Y-63462417D01*
X112646666Y-63523740D01*
X112649500Y-63550098D01*
X112649500Y-67732745D01*
X112629815Y-67799784D01*
X112613181Y-67820426D01*
X111629522Y-68804084D01*
X111629518Y-68804090D01*
X111576792Y-68895412D01*
X111576793Y-68895413D01*
X111549500Y-68997273D01*
X101657930Y-68997273D01*
X101616545Y-68955888D01*
X101616541Y-68955885D01*
X101501817Y-68879228D01*
X101501804Y-68879221D01*
X101374332Y-68826421D01*
X101374322Y-68826418D01*
X101238995Y-68799500D01*
X101238993Y-68799500D01*
X101101007Y-68799500D01*
X101101005Y-68799500D01*
X100965677Y-68826418D01*
X100965667Y-68826421D01*
X100838195Y-68879221D01*
X100838182Y-68879228D01*
X100723458Y-68955885D01*
X100723454Y-68955888D01*
X100625888Y-69053454D01*
X100625885Y-69053458D01*
X100549228Y-69168182D01*
X100549221Y-69168195D01*
X100496421Y-69295667D01*
X100496418Y-69295677D01*
X100469500Y-69431004D01*
X100469500Y-69431007D01*
X100469500Y-69568993D01*
X100469500Y-69568995D01*
X100469499Y-69568995D01*
X99500500Y-69568995D01*
X99500500Y-61003750D01*
X99500726Y-60996263D01*
X99506691Y-60897648D01*
X100699500Y-60897648D01*
X100699500Y-61102351D01*
X100731522Y-61304534D01*
X100794781Y-61499223D01*
X100887715Y-61681613D01*
X101008028Y-61847213D01*
X101152786Y-61991971D01*
X101245840Y-62059577D01*
X101318390Y-62112287D01*
X101434607Y-62171503D01*
X101500776Y-62205218D01*
X101500778Y-62205218D01*
X101500781Y-62205220D01*
X101605137Y-62239127D01*
X101695465Y-62268477D01*
X101796557Y-62284488D01*
X101897648Y-62300500D01*
X101897649Y-62300500D01*
X102102351Y-62300500D01*
X102102352Y-62300500D01*
X102304534Y-62268477D01*
X102499219Y-62205220D01*
X102681610Y-62112287D01*
X102774590Y-62044732D01*
X102847213Y-61991971D01*
X102847215Y-61991968D01*
X102847219Y-61991966D01*
X102991966Y-61847219D01*
X102991968Y-61847215D01*
X102991971Y-61847213D01*
X103075829Y-61731790D01*
X103112287Y-61681610D01*
X103205220Y-61499219D01*
X103268477Y-61304534D01*
X103300500Y-61102352D01*
X103300500Y-60897648D01*
X103298555Y-60885366D01*
X103268477Y-60695465D01*
X103205218Y-60500776D01*
X103154802Y-60401831D01*
X103112287Y-60318390D01*
X103104556Y-60307749D01*
X102991971Y-60152786D01*
X102847217Y-60008032D01*
X102819641Y-59987997D01*
X102689942Y-59893766D01*
X125254500Y-59893766D01*
X125254500Y-60716233D01*
X125288143Y-60885366D01*
X125288146Y-60885378D01*
X125354138Y-61044698D01*
X125354145Y-61044711D01*
X125449954Y-61188098D01*
X125449957Y-61188102D01*
X125571897Y-61310042D01*
X125571901Y-61310045D01*
X125715288Y-61405854D01*
X125715301Y-61405861D01*
X125874621Y-61471853D01*
X125874626Y-61471855D01*
X126043766Y-61505499D01*
X126043769Y-61505500D01*
X126043771Y-61505500D01*
X126216231Y-61505500D01*
X126216232Y-61505499D01*
X126385374Y-61471855D01*
X126544705Y-61405858D01*
X126688099Y-61310045D01*
X126810045Y-61188099D01*
X126905858Y-61044705D01*
X126971855Y-60885374D01*
X127005500Y-60716229D01*
X127005500Y-59893771D01*
X127005500Y-59893768D01*
X127005499Y-59893766D01*
X133004500Y-59893766D01*
X133004500Y-60716233D01*
X133038143Y-60885366D01*
X133038146Y-60885378D01*
X133104138Y-61044698D01*
X133104145Y-61044711D01*
X133199954Y-61188098D01*
X133199957Y-61188102D01*
X133321897Y-61310042D01*
X133321901Y-61310045D01*
X133465288Y-61405854D01*
X133465301Y-61405861D01*
X133624621Y-61471853D01*
X133624626Y-61471855D01*
X133793766Y-61505499D01*
X133793769Y-61505500D01*
X133793771Y-61505500D01*
X133966231Y-61505500D01*
X133966232Y-61505499D01*
X134135374Y-61471855D01*
X134294705Y-61405858D01*
X134438099Y-61310045D01*
X134560045Y-61188099D01*
X134655858Y-61044705D01*
X134716771Y-60897648D01*
X138699500Y-60897648D01*
X138699500Y-61102351D01*
X138731522Y-61304534D01*
X138794781Y-61499223D01*
X138887715Y-61681613D01*
X139008028Y-61847213D01*
X139152786Y-61991971D01*
X139245840Y-62059577D01*
X139318390Y-62112287D01*
X139434607Y-62171503D01*
X139500776Y-62205218D01*
X139500778Y-62205218D01*
X139500781Y-62205220D01*
X139605137Y-62239127D01*
X139695465Y-62268477D01*
X139796557Y-62284488D01*
X139897648Y-62300500D01*
X139897649Y-62300500D01*
X140102351Y-62300500D01*
X140102352Y-62300500D01*
X140304534Y-62268477D01*
X140499219Y-62205220D01*
X140681610Y-62112287D01*
X140774590Y-62044732D01*
X140847213Y-61991971D01*
X140847215Y-61991968D01*
X140847219Y-61991966D01*
X140991966Y-61847219D01*
X140991968Y-61847215D01*
X140991971Y-61847213D01*
X141075829Y-61731790D01*
X141112287Y-61681610D01*
X141205220Y-61499219D01*
X141268477Y-61304534D01*
X141300500Y-61102352D01*
X141300500Y-60897648D01*
X141298555Y-60885366D01*
X141268477Y-60695465D01*
X141205218Y-60500776D01*
X141154802Y-60401831D01*
X141112287Y-60318390D01*
X141104556Y-60307749D01*
X140991971Y-60152786D01*
X140847213Y-60008028D01*
X140681613Y-59887715D01*
X140681612Y-59887714D01*
X140681610Y-59887713D01*
X140624653Y-59858691D01*
X140499223Y-59794781D01*
X140304534Y-59731522D01*
X140129995Y-59703878D01*
X140102352Y-59699500D01*
X139897648Y-59699500D01*
X139873329Y-59703351D01*
X139695465Y-59731522D01*
X139500776Y-59794781D01*
X139318386Y-59887715D01*
X139152786Y-60008028D01*
X139008028Y-60152786D01*
X138887715Y-60318386D01*
X138794781Y-60500776D01*
X138731522Y-60695465D01*
X138699500Y-60897648D01*
X134716771Y-60897648D01*
X134721855Y-60885374D01*
X134733262Y-60828031D01*
X134755499Y-60716233D01*
X134755500Y-60716231D01*
X134755500Y-59893768D01*
X134755499Y-59893766D01*
X134740686Y-59819295D01*
X134721855Y-59724626D01*
X134721853Y-59724621D01*
X134655861Y-59565301D01*
X134655854Y-59565288D01*
X134560045Y-59421901D01*
X134560042Y-59421897D01*
X134438102Y-59299957D01*
X134438098Y-59299954D01*
X134294711Y-59204145D01*
X134294698Y-59204138D01*
X134135378Y-59138146D01*
X134135366Y-59138143D01*
X133966232Y-59104500D01*
X133966229Y-59104500D01*
X133793771Y-59104500D01*
X133793768Y-59104500D01*
X133624633Y-59138143D01*
X133624621Y-59138146D01*
X133465301Y-59204138D01*
X133465288Y-59204145D01*
X133321901Y-59299954D01*
X133321897Y-59299957D01*
X133199957Y-59421897D01*
X133199954Y-59421901D01*
X133104145Y-59565288D01*
X133104138Y-59565301D01*
X133038146Y-59724621D01*
X133038143Y-59724633D01*
X133004500Y-59893766D01*
X127005499Y-59893766D01*
X126990686Y-59819295D01*
X126971855Y-59724626D01*
X126971853Y-59724621D01*
X126905861Y-59565301D01*
X126905854Y-59565288D01*
X126810045Y-59421901D01*
X126810042Y-59421897D01*
X126688102Y-59299957D01*
X126688098Y-59299954D01*
X126544711Y-59204145D01*
X126544698Y-59204138D01*
X126385378Y-59138146D01*
X126385366Y-59138143D01*
X126216232Y-59104500D01*
X126216229Y-59104500D01*
X126043771Y-59104500D01*
X126043768Y-59104500D01*
X125874633Y-59138143D01*
X125874621Y-59138146D01*
X125715301Y-59204138D01*
X125715288Y-59204145D01*
X125571901Y-59299954D01*
X125571897Y-59299957D01*
X125449957Y-59421897D01*
X125449954Y-59421901D01*
X125354145Y-59565288D01*
X125354138Y-59565301D01*
X125288146Y-59724621D01*
X125288143Y-59724633D01*
X125254500Y-59893766D01*
X102689942Y-59893766D01*
X102681609Y-59887712D01*
X102499223Y-59794781D01*
X102304534Y-59731522D01*
X102129995Y-59703878D01*
X102102352Y-59699500D01*
X101897648Y-59699500D01*
X101873329Y-59703351D01*
X101695465Y-59731522D01*
X101500776Y-59794781D01*
X101318386Y-59887715D01*
X101152786Y-60008028D01*
X101008028Y-60152786D01*
X100887715Y-60318386D01*
X100794781Y-60500776D01*
X100731522Y-60695465D01*
X100699500Y-60897648D01*
X99506691Y-60897648D01*
X99507439Y-60885289D01*
X99514295Y-60771932D01*
X99518271Y-60706201D01*
X99520076Y-60691340D01*
X99554998Y-60500781D01*
X99571780Y-60409198D01*
X99575364Y-60394664D01*
X99650736Y-60152786D01*
X99660699Y-60120812D01*
X99665997Y-60106842D01*
X99783727Y-59845258D01*
X99790680Y-59832012D01*
X99855592Y-59724633D01*
X99939075Y-59586534D01*
X99947567Y-59574230D01*
X100124481Y-59348417D01*
X100134396Y-59337226D01*
X100337226Y-59134396D01*
X100348417Y-59124481D01*
X100574230Y-58947567D01*
X100586534Y-58939075D01*
X100832012Y-58790680D01*
X100845258Y-58783727D01*
X101106842Y-58665997D01*
X101120812Y-58660699D01*
X101394668Y-58575362D01*
X101409198Y-58571780D01*
X101691344Y-58520075D01*
X101706201Y-58518271D01*
X101996264Y-58500726D01*
X102003751Y-58500500D01*
X102065892Y-58500500D01*
X139934108Y-58500500D01*
X139996249Y-58500500D01*
X140003736Y-58500726D01*
G37*
%TD.AperFunction*%
%TD*%
M02*
