%TF.GenerationSoftware,KiCad,Pcbnew,10.0.6*%
%TF.CreationDate,2026-09-13T17:41:43+05:30*%
%TF.ProjectId,flight_controller_pcb,666c6967-6874-45f6-936f-6e74726f6c6c,rev?*%
%TF.SameCoordinates,Original*%
%TF.FileFunction,Legend,Top*%
%TF.FilePolarity,Positive*%
%FSLAX46Y46*%
G04 Gerber Fmt 4.6, Leading zero omitted, Abs format (unit mm)*
G04 Created by KiCad (PCBNEW 10.0.6) date 2026-09-13 17:41:43*
%MOMM*%
%LPD*%
G01*
G04 APERTURE LIST*
%ADD10C,0.150000*%
%ADD11C,0.120000*%
%ADD12C,0.100000*%
G04 APERTURE END LIST*
D10*
X100166667Y-65907200D02*
X100309524Y-65954819D01*
X100309524Y-65954819D02*
X100547619Y-65954819D01*
X100547619Y-65954819D02*
X100642857Y-65907200D01*
X100642857Y-65907200D02*
X100690476Y-65859580D01*
X100690476Y-65859580D02*
X100738095Y-65764342D01*
X100738095Y-65764342D02*
X100738095Y-65669104D01*
X100738095Y-65669104D02*
X100690476Y-65573866D01*
X100690476Y-65573866D02*
X100642857Y-65526247D01*
X100642857Y-65526247D02*
X100547619Y-65478628D01*
X100547619Y-65478628D02*
X100357143Y-65431009D01*
X100357143Y-65431009D02*
X100261905Y-65383390D01*
X100261905Y-65383390D02*
X100214286Y-65335771D01*
X100214286Y-65335771D02*
X100166667Y-65240533D01*
X100166667Y-65240533D02*
X100166667Y-65145295D01*
X100166667Y-65145295D02*
X100214286Y-65050057D01*
X100214286Y-65050057D02*
X100261905Y-65002438D01*
X100261905Y-65002438D02*
X100357143Y-64954819D01*
X100357143Y-64954819D02*
X100595238Y-64954819D01*
X100595238Y-64954819D02*
X100738095Y-65002438D01*
X101071429Y-64954819D02*
X101309524Y-65954819D01*
X101309524Y-65954819D02*
X101500000Y-65240533D01*
X101500000Y-65240533D02*
X101690476Y-65954819D01*
X101690476Y-65954819D02*
X101928572Y-64954819D01*
X102833333Y-65954819D02*
X102261905Y-65954819D01*
X102547619Y-65954819D02*
X102547619Y-64954819D01*
X102547619Y-64954819D02*
X102452381Y-65097676D01*
X102452381Y-65097676D02*
X102357143Y-65192914D01*
X102357143Y-65192914D02*
X102261905Y-65240533D01*
X111238095Y-63454819D02*
X111238095Y-64264342D01*
X111238095Y-64264342D02*
X111285714Y-64359580D01*
X111285714Y-64359580D02*
X111333333Y-64407200D01*
X111333333Y-64407200D02*
X111428571Y-64454819D01*
X111428571Y-64454819D02*
X111619047Y-64454819D01*
X111619047Y-64454819D02*
X111714285Y-64407200D01*
X111714285Y-64407200D02*
X111761904Y-64359580D01*
X111761904Y-64359580D02*
X111809523Y-64264342D01*
X111809523Y-64264342D02*
X111809523Y-63454819D01*
X112761904Y-63454819D02*
X112285714Y-63454819D01*
X112285714Y-63454819D02*
X112238095Y-63931009D01*
X112238095Y-63931009D02*
X112285714Y-63883390D01*
X112285714Y-63883390D02*
X112380952Y-63835771D01*
X112380952Y-63835771D02*
X112619047Y-63835771D01*
X112619047Y-63835771D02*
X112714285Y-63883390D01*
X112714285Y-63883390D02*
X112761904Y-63931009D01*
X112761904Y-63931009D02*
X112809523Y-64026247D01*
X112809523Y-64026247D02*
X112809523Y-64264342D01*
X112809523Y-64264342D02*
X112761904Y-64359580D01*
X112761904Y-64359580D02*
X112714285Y-64407200D01*
X112714285Y-64407200D02*
X112619047Y-64454819D01*
X112619047Y-64454819D02*
X112380952Y-64454819D01*
X112380952Y-64454819D02*
X112285714Y-64407200D01*
X112285714Y-64407200D02*
X112238095Y-64359580D01*
X134171666Y-66009819D02*
X134171666Y-66724104D01*
X134171666Y-66724104D02*
X134124047Y-66866961D01*
X134124047Y-66866961D02*
X134028809Y-66962200D01*
X134028809Y-66962200D02*
X133885952Y-67009819D01*
X133885952Y-67009819D02*
X133790714Y-67009819D01*
X134552619Y-66009819D02*
X135219285Y-66009819D01*
X135219285Y-66009819D02*
X134790714Y-67009819D01*
X133238095Y-72954819D02*
X133238095Y-73764342D01*
X133238095Y-73764342D02*
X133285714Y-73859580D01*
X133285714Y-73859580D02*
X133333333Y-73907200D01*
X133333333Y-73907200D02*
X133428571Y-73954819D01*
X133428571Y-73954819D02*
X133619047Y-73954819D01*
X133619047Y-73954819D02*
X133714285Y-73907200D01*
X133714285Y-73907200D02*
X133761904Y-73859580D01*
X133761904Y-73859580D02*
X133809523Y-73764342D01*
X133809523Y-73764342D02*
X133809523Y-72954819D01*
X134238095Y-73050057D02*
X134285714Y-73002438D01*
X134285714Y-73002438D02*
X134380952Y-72954819D01*
X134380952Y-72954819D02*
X134619047Y-72954819D01*
X134619047Y-72954819D02*
X134714285Y-73002438D01*
X134714285Y-73002438D02*
X134761904Y-73050057D01*
X134761904Y-73050057D02*
X134809523Y-73145295D01*
X134809523Y-73145295D02*
X134809523Y-73240533D01*
X134809523Y-73240533D02*
X134761904Y-73383390D01*
X134761904Y-73383390D02*
X134190476Y-73954819D01*
X134190476Y-73954819D02*
X134809523Y-73954819D01*
X136009580Y-83642857D02*
X136057200Y-83690476D01*
X136057200Y-83690476D02*
X136104819Y-83833333D01*
X136104819Y-83833333D02*
X136104819Y-83928571D01*
X136104819Y-83928571D02*
X136057200Y-84071428D01*
X136057200Y-84071428D02*
X135961961Y-84166666D01*
X135961961Y-84166666D02*
X135866723Y-84214285D01*
X135866723Y-84214285D02*
X135676247Y-84261904D01*
X135676247Y-84261904D02*
X135533390Y-84261904D01*
X135533390Y-84261904D02*
X135342914Y-84214285D01*
X135342914Y-84214285D02*
X135247676Y-84166666D01*
X135247676Y-84166666D02*
X135152438Y-84071428D01*
X135152438Y-84071428D02*
X135104819Y-83928571D01*
X135104819Y-83928571D02*
X135104819Y-83833333D01*
X135104819Y-83833333D02*
X135152438Y-83690476D01*
X135152438Y-83690476D02*
X135200057Y-83642857D01*
X136104819Y-82690476D02*
X136104819Y-83261904D01*
X136104819Y-82976190D02*
X135104819Y-82976190D01*
X135104819Y-82976190D02*
X135247676Y-83071428D01*
X135247676Y-83071428D02*
X135342914Y-83166666D01*
X135342914Y-83166666D02*
X135390533Y-83261904D01*
X135104819Y-81785714D02*
X135104819Y-82261904D01*
X135104819Y-82261904D02*
X135581009Y-82309523D01*
X135581009Y-82309523D02*
X135533390Y-82261904D01*
X135533390Y-82261904D02*
X135485771Y-82166666D01*
X135485771Y-82166666D02*
X135485771Y-81928571D01*
X135485771Y-81928571D02*
X135533390Y-81833333D01*
X135533390Y-81833333D02*
X135581009Y-81785714D01*
X135581009Y-81785714D02*
X135676247Y-81738095D01*
X135676247Y-81738095D02*
X135914342Y-81738095D01*
X135914342Y-81738095D02*
X136009580Y-81785714D01*
X136009580Y-81785714D02*
X136057200Y-81833333D01*
X136057200Y-81833333D02*
X136104819Y-81928571D01*
X136104819Y-81928571D02*
X136104819Y-82166666D01*
X136104819Y-82166666D02*
X136057200Y-82261904D01*
X136057200Y-82261904D02*
X136009580Y-82309523D01*
X136857142Y-71359580D02*
X136809523Y-71407200D01*
X136809523Y-71407200D02*
X136666666Y-71454819D01*
X136666666Y-71454819D02*
X136571428Y-71454819D01*
X136571428Y-71454819D02*
X136428571Y-71407200D01*
X136428571Y-71407200D02*
X136333333Y-71311961D01*
X136333333Y-71311961D02*
X136285714Y-71216723D01*
X136285714Y-71216723D02*
X136238095Y-71026247D01*
X136238095Y-71026247D02*
X136238095Y-70883390D01*
X136238095Y-70883390D02*
X136285714Y-70692914D01*
X136285714Y-70692914D02*
X136333333Y-70597676D01*
X136333333Y-70597676D02*
X136428571Y-70502438D01*
X136428571Y-70502438D02*
X136571428Y-70454819D01*
X136571428Y-70454819D02*
X136666666Y-70454819D01*
X136666666Y-70454819D02*
X136809523Y-70502438D01*
X136809523Y-70502438D02*
X136857142Y-70550057D01*
X137809523Y-71454819D02*
X137238095Y-71454819D01*
X137523809Y-71454819D02*
X137523809Y-70454819D01*
X137523809Y-70454819D02*
X137428571Y-70597676D01*
X137428571Y-70597676D02*
X137333333Y-70692914D01*
X137333333Y-70692914D02*
X137238095Y-70740533D01*
X138666666Y-70788152D02*
X138666666Y-71454819D01*
X138428571Y-70407200D02*
X138190476Y-71121485D01*
X138190476Y-71121485D02*
X138809523Y-71121485D01*
X131833333Y-71454819D02*
X131500000Y-70978628D01*
X131261905Y-71454819D02*
X131261905Y-70454819D01*
X131261905Y-70454819D02*
X131642857Y-70454819D01*
X131642857Y-70454819D02*
X131738095Y-70502438D01*
X131738095Y-70502438D02*
X131785714Y-70550057D01*
X131785714Y-70550057D02*
X131833333Y-70645295D01*
X131833333Y-70645295D02*
X131833333Y-70788152D01*
X131833333Y-70788152D02*
X131785714Y-70883390D01*
X131785714Y-70883390D02*
X131738095Y-70931009D01*
X131738095Y-70931009D02*
X131642857Y-70978628D01*
X131642857Y-70978628D02*
X131261905Y-70978628D01*
X132690476Y-70788152D02*
X132690476Y-71454819D01*
X132452381Y-70407200D02*
X132214286Y-71121485D01*
X132214286Y-71121485D02*
X132833333Y-71121485D01*
X102523809Y-80278628D02*
X102523809Y-80754819D01*
X102190476Y-79754819D02*
X102523809Y-80278628D01*
X102523809Y-80278628D02*
X102857142Y-79754819D01*
X103714285Y-80754819D02*
X103142857Y-80754819D01*
X103428571Y-80754819D02*
X103428571Y-79754819D01*
X103428571Y-79754819D02*
X103333333Y-79897676D01*
X103333333Y-79897676D02*
X103238095Y-79992914D01*
X103238095Y-79992914D02*
X103142857Y-80040533D01*
X117738095Y-68954819D02*
X117738095Y-69764342D01*
X117738095Y-69764342D02*
X117785714Y-69859580D01*
X117785714Y-69859580D02*
X117833333Y-69907200D01*
X117833333Y-69907200D02*
X117928571Y-69954819D01*
X117928571Y-69954819D02*
X118119047Y-69954819D01*
X118119047Y-69954819D02*
X118214285Y-69907200D01*
X118214285Y-69907200D02*
X118261904Y-69859580D01*
X118261904Y-69859580D02*
X118309523Y-69764342D01*
X118309523Y-69764342D02*
X118309523Y-68954819D01*
X119214285Y-69288152D02*
X119214285Y-69954819D01*
X118976190Y-68907200D02*
X118738095Y-69621485D01*
X118738095Y-69621485D02*
X119357142Y-69621485D01*
X117913095Y-71554819D02*
X117913095Y-72364342D01*
X117913095Y-72364342D02*
X117960714Y-72459580D01*
X117960714Y-72459580D02*
X118008333Y-72507200D01*
X118008333Y-72507200D02*
X118103571Y-72554819D01*
X118103571Y-72554819D02*
X118294047Y-72554819D01*
X118294047Y-72554819D02*
X118389285Y-72507200D01*
X118389285Y-72507200D02*
X118436904Y-72459580D01*
X118436904Y-72459580D02*
X118484523Y-72364342D01*
X118484523Y-72364342D02*
X118484523Y-71554819D01*
X119484523Y-72554819D02*
X118913095Y-72554819D01*
X119198809Y-72554819D02*
X119198809Y-71554819D01*
X119198809Y-71554819D02*
X119103571Y-71697676D01*
X119103571Y-71697676D02*
X119008333Y-71792914D01*
X119008333Y-71792914D02*
X118913095Y-71840533D01*
X110833333Y-60804819D02*
X110500000Y-60328628D01*
X110261905Y-60804819D02*
X110261905Y-59804819D01*
X110261905Y-59804819D02*
X110642857Y-59804819D01*
X110642857Y-59804819D02*
X110738095Y-59852438D01*
X110738095Y-59852438D02*
X110785714Y-59900057D01*
X110785714Y-59900057D02*
X110833333Y-59995295D01*
X110833333Y-59995295D02*
X110833333Y-60138152D01*
X110833333Y-60138152D02*
X110785714Y-60233390D01*
X110785714Y-60233390D02*
X110738095Y-60281009D01*
X110738095Y-60281009D02*
X110642857Y-60328628D01*
X110642857Y-60328628D02*
X110261905Y-60328628D01*
X111166667Y-59804819D02*
X111785714Y-59804819D01*
X111785714Y-59804819D02*
X111452381Y-60185771D01*
X111452381Y-60185771D02*
X111595238Y-60185771D01*
X111595238Y-60185771D02*
X111690476Y-60233390D01*
X111690476Y-60233390D02*
X111738095Y-60281009D01*
X111738095Y-60281009D02*
X111785714Y-60376247D01*
X111785714Y-60376247D02*
X111785714Y-60614342D01*
X111785714Y-60614342D02*
X111738095Y-60709580D01*
X111738095Y-60709580D02*
X111690476Y-60757200D01*
X111690476Y-60757200D02*
X111595238Y-60804819D01*
X111595238Y-60804819D02*
X111309524Y-60804819D01*
X111309524Y-60804819D02*
X111214286Y-60757200D01*
X111214286Y-60757200D02*
X111166667Y-60709580D01*
X110333333Y-69454819D02*
X110000000Y-68978628D01*
X109761905Y-69454819D02*
X109761905Y-68454819D01*
X109761905Y-68454819D02*
X110142857Y-68454819D01*
X110142857Y-68454819D02*
X110238095Y-68502438D01*
X110238095Y-68502438D02*
X110285714Y-68550057D01*
X110285714Y-68550057D02*
X110333333Y-68645295D01*
X110333333Y-68645295D02*
X110333333Y-68788152D01*
X110333333Y-68788152D02*
X110285714Y-68883390D01*
X110285714Y-68883390D02*
X110238095Y-68931009D01*
X110238095Y-68931009D02*
X110142857Y-68978628D01*
X110142857Y-68978628D02*
X109761905Y-68978628D01*
X110714286Y-68550057D02*
X110761905Y-68502438D01*
X110761905Y-68502438D02*
X110857143Y-68454819D01*
X110857143Y-68454819D02*
X111095238Y-68454819D01*
X111095238Y-68454819D02*
X111190476Y-68502438D01*
X111190476Y-68502438D02*
X111238095Y-68550057D01*
X111238095Y-68550057D02*
X111285714Y-68645295D01*
X111285714Y-68645295D02*
X111285714Y-68740533D01*
X111285714Y-68740533D02*
X111238095Y-68883390D01*
X111238095Y-68883390D02*
X110666667Y-69454819D01*
X110666667Y-69454819D02*
X111285714Y-69454819D01*
X108333333Y-72954819D02*
X108000000Y-72478628D01*
X107761905Y-72954819D02*
X107761905Y-71954819D01*
X107761905Y-71954819D02*
X108142857Y-71954819D01*
X108142857Y-71954819D02*
X108238095Y-72002438D01*
X108238095Y-72002438D02*
X108285714Y-72050057D01*
X108285714Y-72050057D02*
X108333333Y-72145295D01*
X108333333Y-72145295D02*
X108333333Y-72288152D01*
X108333333Y-72288152D02*
X108285714Y-72383390D01*
X108285714Y-72383390D02*
X108238095Y-72431009D01*
X108238095Y-72431009D02*
X108142857Y-72478628D01*
X108142857Y-72478628D02*
X107761905Y-72478628D01*
X109285714Y-72954819D02*
X108714286Y-72954819D01*
X109000000Y-72954819D02*
X109000000Y-71954819D01*
X109000000Y-71954819D02*
X108904762Y-72097676D01*
X108904762Y-72097676D02*
X108809524Y-72192914D01*
X108809524Y-72192914D02*
X108714286Y-72240533D01*
X120166666Y-91034819D02*
X120166666Y-91749104D01*
X120166666Y-91749104D02*
X120119047Y-91891961D01*
X120119047Y-91891961D02*
X120023809Y-91987200D01*
X120023809Y-91987200D02*
X119880952Y-92034819D01*
X119880952Y-92034819D02*
X119785714Y-92034819D01*
X121071428Y-91034819D02*
X120880952Y-91034819D01*
X120880952Y-91034819D02*
X120785714Y-91082438D01*
X120785714Y-91082438D02*
X120738095Y-91130057D01*
X120738095Y-91130057D02*
X120642857Y-91272914D01*
X120642857Y-91272914D02*
X120595238Y-91463390D01*
X120595238Y-91463390D02*
X120595238Y-91844342D01*
X120595238Y-91844342D02*
X120642857Y-91939580D01*
X120642857Y-91939580D02*
X120690476Y-91987200D01*
X120690476Y-91987200D02*
X120785714Y-92034819D01*
X120785714Y-92034819D02*
X120976190Y-92034819D01*
X120976190Y-92034819D02*
X121071428Y-91987200D01*
X121071428Y-91987200D02*
X121119047Y-91939580D01*
X121119047Y-91939580D02*
X121166666Y-91844342D01*
X121166666Y-91844342D02*
X121166666Y-91606247D01*
X121166666Y-91606247D02*
X121119047Y-91511009D01*
X121119047Y-91511009D02*
X121071428Y-91463390D01*
X121071428Y-91463390D02*
X120976190Y-91415771D01*
X120976190Y-91415771D02*
X120785714Y-91415771D01*
X120785714Y-91415771D02*
X120690476Y-91463390D01*
X120690476Y-91463390D02*
X120642857Y-91511009D01*
X120642857Y-91511009D02*
X120595238Y-91606247D01*
X125166666Y-91034819D02*
X125166666Y-91749104D01*
X125166666Y-91749104D02*
X125119047Y-91891961D01*
X125119047Y-91891961D02*
X125023809Y-91987200D01*
X125023809Y-91987200D02*
X124880952Y-92034819D01*
X124880952Y-92034819D02*
X124785714Y-92034819D01*
X126119047Y-91034819D02*
X125642857Y-91034819D01*
X125642857Y-91034819D02*
X125595238Y-91511009D01*
X125595238Y-91511009D02*
X125642857Y-91463390D01*
X125642857Y-91463390D02*
X125738095Y-91415771D01*
X125738095Y-91415771D02*
X125976190Y-91415771D01*
X125976190Y-91415771D02*
X126071428Y-91463390D01*
X126071428Y-91463390D02*
X126119047Y-91511009D01*
X126119047Y-91511009D02*
X126166666Y-91606247D01*
X126166666Y-91606247D02*
X126166666Y-91844342D01*
X126166666Y-91844342D02*
X126119047Y-91939580D01*
X126119047Y-91939580D02*
X126071428Y-91987200D01*
X126071428Y-91987200D02*
X125976190Y-92034819D01*
X125976190Y-92034819D02*
X125738095Y-92034819D01*
X125738095Y-92034819D02*
X125642857Y-91987200D01*
X125642857Y-91987200D02*
X125595238Y-91939580D01*
X115166666Y-91034819D02*
X115166666Y-91749104D01*
X115166666Y-91749104D02*
X115119047Y-91891961D01*
X115119047Y-91891961D02*
X115023809Y-91987200D01*
X115023809Y-91987200D02*
X114880952Y-92034819D01*
X114880952Y-92034819D02*
X114785714Y-92034819D01*
X116071428Y-91368152D02*
X116071428Y-92034819D01*
X115833333Y-90987200D02*
X115595238Y-91701485D01*
X115595238Y-91701485D02*
X116214285Y-91701485D01*
X110166666Y-91074819D02*
X110166666Y-91789104D01*
X110166666Y-91789104D02*
X110119047Y-91931961D01*
X110119047Y-91931961D02*
X110023809Y-92027200D01*
X110023809Y-92027200D02*
X109880952Y-92074819D01*
X109880952Y-92074819D02*
X109785714Y-92074819D01*
X110547619Y-91074819D02*
X111166666Y-91074819D01*
X111166666Y-91074819D02*
X110833333Y-91455771D01*
X110833333Y-91455771D02*
X110976190Y-91455771D01*
X110976190Y-91455771D02*
X111071428Y-91503390D01*
X111071428Y-91503390D02*
X111119047Y-91551009D01*
X111119047Y-91551009D02*
X111166666Y-91646247D01*
X111166666Y-91646247D02*
X111166666Y-91884342D01*
X111166666Y-91884342D02*
X111119047Y-91979580D01*
X111119047Y-91979580D02*
X111071428Y-92027200D01*
X111071428Y-92027200D02*
X110976190Y-92074819D01*
X110976190Y-92074819D02*
X110690476Y-92074819D01*
X110690476Y-92074819D02*
X110595238Y-92027200D01*
X110595238Y-92027200D02*
X110547619Y-91979580D01*
X131666666Y-88764819D02*
X131666666Y-89479104D01*
X131666666Y-89479104D02*
X131619047Y-89621961D01*
X131619047Y-89621961D02*
X131523809Y-89717200D01*
X131523809Y-89717200D02*
X131380952Y-89764819D01*
X131380952Y-89764819D02*
X131285714Y-89764819D01*
X132095238Y-88860057D02*
X132142857Y-88812438D01*
X132142857Y-88812438D02*
X132238095Y-88764819D01*
X132238095Y-88764819D02*
X132476190Y-88764819D01*
X132476190Y-88764819D02*
X132571428Y-88812438D01*
X132571428Y-88812438D02*
X132619047Y-88860057D01*
X132619047Y-88860057D02*
X132666666Y-88955295D01*
X132666666Y-88955295D02*
X132666666Y-89050533D01*
X132666666Y-89050533D02*
X132619047Y-89193390D01*
X132619047Y-89193390D02*
X132047619Y-89764819D01*
X132047619Y-89764819D02*
X132666666Y-89764819D01*
X103441666Y-83501009D02*
X103108333Y-83501009D01*
X103108333Y-84024819D02*
X103108333Y-83024819D01*
X103108333Y-83024819D02*
X103584523Y-83024819D01*
X104298809Y-83501009D02*
X104441666Y-83548628D01*
X104441666Y-83548628D02*
X104489285Y-83596247D01*
X104489285Y-83596247D02*
X104536904Y-83691485D01*
X104536904Y-83691485D02*
X104536904Y-83834342D01*
X104536904Y-83834342D02*
X104489285Y-83929580D01*
X104489285Y-83929580D02*
X104441666Y-83977200D01*
X104441666Y-83977200D02*
X104346428Y-84024819D01*
X104346428Y-84024819D02*
X103965476Y-84024819D01*
X103965476Y-84024819D02*
X103965476Y-83024819D01*
X103965476Y-83024819D02*
X104298809Y-83024819D01*
X104298809Y-83024819D02*
X104394047Y-83072438D01*
X104394047Y-83072438D02*
X104441666Y-83120057D01*
X104441666Y-83120057D02*
X104489285Y-83215295D01*
X104489285Y-83215295D02*
X104489285Y-83310533D01*
X104489285Y-83310533D02*
X104441666Y-83405771D01*
X104441666Y-83405771D02*
X104394047Y-83453390D01*
X104394047Y-83453390D02*
X104298809Y-83501009D01*
X104298809Y-83501009D02*
X103965476Y-83501009D01*
X105489285Y-84024819D02*
X104917857Y-84024819D01*
X105203571Y-84024819D02*
X105203571Y-83024819D01*
X105203571Y-83024819D02*
X105108333Y-83167676D01*
X105108333Y-83167676D02*
X105013095Y-83262914D01*
X105013095Y-83262914D02*
X104917857Y-83310533D01*
X106632142Y-88859580D02*
X106584523Y-88907200D01*
X106584523Y-88907200D02*
X106441666Y-88954819D01*
X106441666Y-88954819D02*
X106346428Y-88954819D01*
X106346428Y-88954819D02*
X106203571Y-88907200D01*
X106203571Y-88907200D02*
X106108333Y-88811961D01*
X106108333Y-88811961D02*
X106060714Y-88716723D01*
X106060714Y-88716723D02*
X106013095Y-88526247D01*
X106013095Y-88526247D02*
X106013095Y-88383390D01*
X106013095Y-88383390D02*
X106060714Y-88192914D01*
X106060714Y-88192914D02*
X106108333Y-88097676D01*
X106108333Y-88097676D02*
X106203571Y-88002438D01*
X106203571Y-88002438D02*
X106346428Y-87954819D01*
X106346428Y-87954819D02*
X106441666Y-87954819D01*
X106441666Y-87954819D02*
X106584523Y-88002438D01*
X106584523Y-88002438D02*
X106632142Y-88050057D01*
X107013095Y-88050057D02*
X107060714Y-88002438D01*
X107060714Y-88002438D02*
X107155952Y-87954819D01*
X107155952Y-87954819D02*
X107394047Y-87954819D01*
X107394047Y-87954819D02*
X107489285Y-88002438D01*
X107489285Y-88002438D02*
X107536904Y-88050057D01*
X107536904Y-88050057D02*
X107584523Y-88145295D01*
X107584523Y-88145295D02*
X107584523Y-88240533D01*
X107584523Y-88240533D02*
X107536904Y-88383390D01*
X107536904Y-88383390D02*
X106965476Y-88954819D01*
X106965476Y-88954819D02*
X107584523Y-88954819D01*
X108441666Y-88288152D02*
X108441666Y-88954819D01*
X108203571Y-87907200D02*
X107965476Y-88621485D01*
X107965476Y-88621485D02*
X108584523Y-88621485D01*
X107357142Y-66429580D02*
X107309523Y-66477200D01*
X107309523Y-66477200D02*
X107166666Y-66524819D01*
X107166666Y-66524819D02*
X107071428Y-66524819D01*
X107071428Y-66524819D02*
X106928571Y-66477200D01*
X106928571Y-66477200D02*
X106833333Y-66381961D01*
X106833333Y-66381961D02*
X106785714Y-66286723D01*
X106785714Y-66286723D02*
X106738095Y-66096247D01*
X106738095Y-66096247D02*
X106738095Y-65953390D01*
X106738095Y-65953390D02*
X106785714Y-65762914D01*
X106785714Y-65762914D02*
X106833333Y-65667676D01*
X106833333Y-65667676D02*
X106928571Y-65572438D01*
X106928571Y-65572438D02*
X107071428Y-65524819D01*
X107071428Y-65524819D02*
X107166666Y-65524819D01*
X107166666Y-65524819D02*
X107309523Y-65572438D01*
X107309523Y-65572438D02*
X107357142Y-65620057D01*
X107738095Y-65620057D02*
X107785714Y-65572438D01*
X107785714Y-65572438D02*
X107880952Y-65524819D01*
X107880952Y-65524819D02*
X108119047Y-65524819D01*
X108119047Y-65524819D02*
X108214285Y-65572438D01*
X108214285Y-65572438D02*
X108261904Y-65620057D01*
X108261904Y-65620057D02*
X108309523Y-65715295D01*
X108309523Y-65715295D02*
X108309523Y-65810533D01*
X108309523Y-65810533D02*
X108261904Y-65953390D01*
X108261904Y-65953390D02*
X107690476Y-66524819D01*
X107690476Y-66524819D02*
X108309523Y-66524819D01*
X108642857Y-65524819D02*
X109261904Y-65524819D01*
X109261904Y-65524819D02*
X108928571Y-65905771D01*
X108928571Y-65905771D02*
X109071428Y-65905771D01*
X109071428Y-65905771D02*
X109166666Y-65953390D01*
X109166666Y-65953390D02*
X109214285Y-66001009D01*
X109214285Y-66001009D02*
X109261904Y-66096247D01*
X109261904Y-66096247D02*
X109261904Y-66334342D01*
X109261904Y-66334342D02*
X109214285Y-66429580D01*
X109214285Y-66429580D02*
X109166666Y-66477200D01*
X109166666Y-66477200D02*
X109071428Y-66524819D01*
X109071428Y-66524819D02*
X108785714Y-66524819D01*
X108785714Y-66524819D02*
X108690476Y-66477200D01*
X108690476Y-66477200D02*
X108642857Y-66429580D01*
X106857142Y-63429580D02*
X106809523Y-63477200D01*
X106809523Y-63477200D02*
X106666666Y-63524819D01*
X106666666Y-63524819D02*
X106571428Y-63524819D01*
X106571428Y-63524819D02*
X106428571Y-63477200D01*
X106428571Y-63477200D02*
X106333333Y-63381961D01*
X106333333Y-63381961D02*
X106285714Y-63286723D01*
X106285714Y-63286723D02*
X106238095Y-63096247D01*
X106238095Y-63096247D02*
X106238095Y-62953390D01*
X106238095Y-62953390D02*
X106285714Y-62762914D01*
X106285714Y-62762914D02*
X106333333Y-62667676D01*
X106333333Y-62667676D02*
X106428571Y-62572438D01*
X106428571Y-62572438D02*
X106571428Y-62524819D01*
X106571428Y-62524819D02*
X106666666Y-62524819D01*
X106666666Y-62524819D02*
X106809523Y-62572438D01*
X106809523Y-62572438D02*
X106857142Y-62620057D01*
X107238095Y-62620057D02*
X107285714Y-62572438D01*
X107285714Y-62572438D02*
X107380952Y-62524819D01*
X107380952Y-62524819D02*
X107619047Y-62524819D01*
X107619047Y-62524819D02*
X107714285Y-62572438D01*
X107714285Y-62572438D02*
X107761904Y-62620057D01*
X107761904Y-62620057D02*
X107809523Y-62715295D01*
X107809523Y-62715295D02*
X107809523Y-62810533D01*
X107809523Y-62810533D02*
X107761904Y-62953390D01*
X107761904Y-62953390D02*
X107190476Y-63524819D01*
X107190476Y-63524819D02*
X107809523Y-63524819D01*
X108190476Y-62620057D02*
X108238095Y-62572438D01*
X108238095Y-62572438D02*
X108333333Y-62524819D01*
X108333333Y-62524819D02*
X108571428Y-62524819D01*
X108571428Y-62524819D02*
X108666666Y-62572438D01*
X108666666Y-62572438D02*
X108714285Y-62620057D01*
X108714285Y-62620057D02*
X108761904Y-62715295D01*
X108761904Y-62715295D02*
X108761904Y-62810533D01*
X108761904Y-62810533D02*
X108714285Y-62953390D01*
X108714285Y-62953390D02*
X108142857Y-63524819D01*
X108142857Y-63524819D02*
X108761904Y-63524819D01*
X118857142Y-62859580D02*
X118809523Y-62907200D01*
X118809523Y-62907200D02*
X118666666Y-62954819D01*
X118666666Y-62954819D02*
X118571428Y-62954819D01*
X118571428Y-62954819D02*
X118428571Y-62907200D01*
X118428571Y-62907200D02*
X118333333Y-62811961D01*
X118333333Y-62811961D02*
X118285714Y-62716723D01*
X118285714Y-62716723D02*
X118238095Y-62526247D01*
X118238095Y-62526247D02*
X118238095Y-62383390D01*
X118238095Y-62383390D02*
X118285714Y-62192914D01*
X118285714Y-62192914D02*
X118333333Y-62097676D01*
X118333333Y-62097676D02*
X118428571Y-62002438D01*
X118428571Y-62002438D02*
X118571428Y-61954819D01*
X118571428Y-61954819D02*
X118666666Y-61954819D01*
X118666666Y-61954819D02*
X118809523Y-62002438D01*
X118809523Y-62002438D02*
X118857142Y-62050057D01*
X119238095Y-62050057D02*
X119285714Y-62002438D01*
X119285714Y-62002438D02*
X119380952Y-61954819D01*
X119380952Y-61954819D02*
X119619047Y-61954819D01*
X119619047Y-61954819D02*
X119714285Y-62002438D01*
X119714285Y-62002438D02*
X119761904Y-62050057D01*
X119761904Y-62050057D02*
X119809523Y-62145295D01*
X119809523Y-62145295D02*
X119809523Y-62240533D01*
X119809523Y-62240533D02*
X119761904Y-62383390D01*
X119761904Y-62383390D02*
X119190476Y-62954819D01*
X119190476Y-62954819D02*
X119809523Y-62954819D01*
X120761904Y-62954819D02*
X120190476Y-62954819D01*
X120476190Y-62954819D02*
X120476190Y-61954819D01*
X120476190Y-61954819D02*
X120380952Y-62097676D01*
X120380952Y-62097676D02*
X120285714Y-62192914D01*
X120285714Y-62192914D02*
X120190476Y-62240533D01*
X122357142Y-64859580D02*
X122309523Y-64907200D01*
X122309523Y-64907200D02*
X122166666Y-64954819D01*
X122166666Y-64954819D02*
X122071428Y-64954819D01*
X122071428Y-64954819D02*
X121928571Y-64907200D01*
X121928571Y-64907200D02*
X121833333Y-64811961D01*
X121833333Y-64811961D02*
X121785714Y-64716723D01*
X121785714Y-64716723D02*
X121738095Y-64526247D01*
X121738095Y-64526247D02*
X121738095Y-64383390D01*
X121738095Y-64383390D02*
X121785714Y-64192914D01*
X121785714Y-64192914D02*
X121833333Y-64097676D01*
X121833333Y-64097676D02*
X121928571Y-64002438D01*
X121928571Y-64002438D02*
X122071428Y-63954819D01*
X122071428Y-63954819D02*
X122166666Y-63954819D01*
X122166666Y-63954819D02*
X122309523Y-64002438D01*
X122309523Y-64002438D02*
X122357142Y-64050057D01*
X122738095Y-64050057D02*
X122785714Y-64002438D01*
X122785714Y-64002438D02*
X122880952Y-63954819D01*
X122880952Y-63954819D02*
X123119047Y-63954819D01*
X123119047Y-63954819D02*
X123214285Y-64002438D01*
X123214285Y-64002438D02*
X123261904Y-64050057D01*
X123261904Y-64050057D02*
X123309523Y-64145295D01*
X123309523Y-64145295D02*
X123309523Y-64240533D01*
X123309523Y-64240533D02*
X123261904Y-64383390D01*
X123261904Y-64383390D02*
X122690476Y-64954819D01*
X122690476Y-64954819D02*
X123309523Y-64954819D01*
X123928571Y-63954819D02*
X124023809Y-63954819D01*
X124023809Y-63954819D02*
X124119047Y-64002438D01*
X124119047Y-64002438D02*
X124166666Y-64050057D01*
X124166666Y-64050057D02*
X124214285Y-64145295D01*
X124214285Y-64145295D02*
X124261904Y-64335771D01*
X124261904Y-64335771D02*
X124261904Y-64573866D01*
X124261904Y-64573866D02*
X124214285Y-64764342D01*
X124214285Y-64764342D02*
X124166666Y-64859580D01*
X124166666Y-64859580D02*
X124119047Y-64907200D01*
X124119047Y-64907200D02*
X124023809Y-64954819D01*
X124023809Y-64954819D02*
X123928571Y-64954819D01*
X123928571Y-64954819D02*
X123833333Y-64907200D01*
X123833333Y-64907200D02*
X123785714Y-64859580D01*
X123785714Y-64859580D02*
X123738095Y-64764342D01*
X123738095Y-64764342D02*
X123690476Y-64573866D01*
X123690476Y-64573866D02*
X123690476Y-64335771D01*
X123690476Y-64335771D02*
X123738095Y-64145295D01*
X123738095Y-64145295D02*
X123785714Y-64050057D01*
X123785714Y-64050057D02*
X123833333Y-64002438D01*
X123833333Y-64002438D02*
X123928571Y-63954819D01*
X114857142Y-62929580D02*
X114809523Y-62977200D01*
X114809523Y-62977200D02*
X114666666Y-63024819D01*
X114666666Y-63024819D02*
X114571428Y-63024819D01*
X114571428Y-63024819D02*
X114428571Y-62977200D01*
X114428571Y-62977200D02*
X114333333Y-62881961D01*
X114333333Y-62881961D02*
X114285714Y-62786723D01*
X114285714Y-62786723D02*
X114238095Y-62596247D01*
X114238095Y-62596247D02*
X114238095Y-62453390D01*
X114238095Y-62453390D02*
X114285714Y-62262914D01*
X114285714Y-62262914D02*
X114333333Y-62167676D01*
X114333333Y-62167676D02*
X114428571Y-62072438D01*
X114428571Y-62072438D02*
X114571428Y-62024819D01*
X114571428Y-62024819D02*
X114666666Y-62024819D01*
X114666666Y-62024819D02*
X114809523Y-62072438D01*
X114809523Y-62072438D02*
X114857142Y-62120057D01*
X115809523Y-63024819D02*
X115238095Y-63024819D01*
X115523809Y-63024819D02*
X115523809Y-62024819D01*
X115523809Y-62024819D02*
X115428571Y-62167676D01*
X115428571Y-62167676D02*
X115333333Y-62262914D01*
X115333333Y-62262914D02*
X115238095Y-62310533D01*
X116285714Y-63024819D02*
X116476190Y-63024819D01*
X116476190Y-63024819D02*
X116571428Y-62977200D01*
X116571428Y-62977200D02*
X116619047Y-62929580D01*
X116619047Y-62929580D02*
X116714285Y-62786723D01*
X116714285Y-62786723D02*
X116761904Y-62596247D01*
X116761904Y-62596247D02*
X116761904Y-62215295D01*
X116761904Y-62215295D02*
X116714285Y-62120057D01*
X116714285Y-62120057D02*
X116666666Y-62072438D01*
X116666666Y-62072438D02*
X116571428Y-62024819D01*
X116571428Y-62024819D02*
X116380952Y-62024819D01*
X116380952Y-62024819D02*
X116285714Y-62072438D01*
X116285714Y-62072438D02*
X116238095Y-62120057D01*
X116238095Y-62120057D02*
X116190476Y-62215295D01*
X116190476Y-62215295D02*
X116190476Y-62453390D01*
X116190476Y-62453390D02*
X116238095Y-62548628D01*
X116238095Y-62548628D02*
X116285714Y-62596247D01*
X116285714Y-62596247D02*
X116380952Y-62643866D01*
X116380952Y-62643866D02*
X116571428Y-62643866D01*
X116571428Y-62643866D02*
X116666666Y-62596247D01*
X116666666Y-62596247D02*
X116714285Y-62548628D01*
X116714285Y-62548628D02*
X116761904Y-62453390D01*
X122632142Y-66429580D02*
X122584523Y-66477200D01*
X122584523Y-66477200D02*
X122441666Y-66524819D01*
X122441666Y-66524819D02*
X122346428Y-66524819D01*
X122346428Y-66524819D02*
X122203571Y-66477200D01*
X122203571Y-66477200D02*
X122108333Y-66381961D01*
X122108333Y-66381961D02*
X122060714Y-66286723D01*
X122060714Y-66286723D02*
X122013095Y-66096247D01*
X122013095Y-66096247D02*
X122013095Y-65953390D01*
X122013095Y-65953390D02*
X122060714Y-65762914D01*
X122060714Y-65762914D02*
X122108333Y-65667676D01*
X122108333Y-65667676D02*
X122203571Y-65572438D01*
X122203571Y-65572438D02*
X122346428Y-65524819D01*
X122346428Y-65524819D02*
X122441666Y-65524819D01*
X122441666Y-65524819D02*
X122584523Y-65572438D01*
X122584523Y-65572438D02*
X122632142Y-65620057D01*
X123584523Y-66524819D02*
X123013095Y-66524819D01*
X123298809Y-66524819D02*
X123298809Y-65524819D01*
X123298809Y-65524819D02*
X123203571Y-65667676D01*
X123203571Y-65667676D02*
X123108333Y-65762914D01*
X123108333Y-65762914D02*
X123013095Y-65810533D01*
X124155952Y-65953390D02*
X124060714Y-65905771D01*
X124060714Y-65905771D02*
X124013095Y-65858152D01*
X124013095Y-65858152D02*
X123965476Y-65762914D01*
X123965476Y-65762914D02*
X123965476Y-65715295D01*
X123965476Y-65715295D02*
X124013095Y-65620057D01*
X124013095Y-65620057D02*
X124060714Y-65572438D01*
X124060714Y-65572438D02*
X124155952Y-65524819D01*
X124155952Y-65524819D02*
X124346428Y-65524819D01*
X124346428Y-65524819D02*
X124441666Y-65572438D01*
X124441666Y-65572438D02*
X124489285Y-65620057D01*
X124489285Y-65620057D02*
X124536904Y-65715295D01*
X124536904Y-65715295D02*
X124536904Y-65762914D01*
X124536904Y-65762914D02*
X124489285Y-65858152D01*
X124489285Y-65858152D02*
X124441666Y-65905771D01*
X124441666Y-65905771D02*
X124346428Y-65953390D01*
X124346428Y-65953390D02*
X124155952Y-65953390D01*
X124155952Y-65953390D02*
X124060714Y-66001009D01*
X124060714Y-66001009D02*
X124013095Y-66048628D01*
X124013095Y-66048628D02*
X123965476Y-66143866D01*
X123965476Y-66143866D02*
X123965476Y-66334342D01*
X123965476Y-66334342D02*
X124013095Y-66429580D01*
X124013095Y-66429580D02*
X124060714Y-66477200D01*
X124060714Y-66477200D02*
X124155952Y-66524819D01*
X124155952Y-66524819D02*
X124346428Y-66524819D01*
X124346428Y-66524819D02*
X124441666Y-66477200D01*
X124441666Y-66477200D02*
X124489285Y-66429580D01*
X124489285Y-66429580D02*
X124536904Y-66334342D01*
X124536904Y-66334342D02*
X124536904Y-66143866D01*
X124536904Y-66143866D02*
X124489285Y-66048628D01*
X124489285Y-66048628D02*
X124441666Y-66001009D01*
X124441666Y-66001009D02*
X124346428Y-65953390D01*
X104857142Y-80859580D02*
X104809523Y-80907200D01*
X104809523Y-80907200D02*
X104666666Y-80954819D01*
X104666666Y-80954819D02*
X104571428Y-80954819D01*
X104571428Y-80954819D02*
X104428571Y-80907200D01*
X104428571Y-80907200D02*
X104333333Y-80811961D01*
X104333333Y-80811961D02*
X104285714Y-80716723D01*
X104285714Y-80716723D02*
X104238095Y-80526247D01*
X104238095Y-80526247D02*
X104238095Y-80383390D01*
X104238095Y-80383390D02*
X104285714Y-80192914D01*
X104285714Y-80192914D02*
X104333333Y-80097676D01*
X104333333Y-80097676D02*
X104428571Y-80002438D01*
X104428571Y-80002438D02*
X104571428Y-79954819D01*
X104571428Y-79954819D02*
X104666666Y-79954819D01*
X104666666Y-79954819D02*
X104809523Y-80002438D01*
X104809523Y-80002438D02*
X104857142Y-80050057D01*
X105809523Y-80954819D02*
X105238095Y-80954819D01*
X105523809Y-80954819D02*
X105523809Y-79954819D01*
X105523809Y-79954819D02*
X105428571Y-80097676D01*
X105428571Y-80097676D02*
X105333333Y-80192914D01*
X105333333Y-80192914D02*
X105238095Y-80240533D01*
X106142857Y-79954819D02*
X106761904Y-79954819D01*
X106761904Y-79954819D02*
X106428571Y-80335771D01*
X106428571Y-80335771D02*
X106571428Y-80335771D01*
X106571428Y-80335771D02*
X106666666Y-80383390D01*
X106666666Y-80383390D02*
X106714285Y-80431009D01*
X106714285Y-80431009D02*
X106761904Y-80526247D01*
X106761904Y-80526247D02*
X106761904Y-80764342D01*
X106761904Y-80764342D02*
X106714285Y-80859580D01*
X106714285Y-80859580D02*
X106666666Y-80907200D01*
X106666666Y-80907200D02*
X106571428Y-80954819D01*
X106571428Y-80954819D02*
X106285714Y-80954819D01*
X106285714Y-80954819D02*
X106190476Y-80907200D01*
X106190476Y-80907200D02*
X106142857Y-80859580D01*
X109357142Y-77859580D02*
X109309523Y-77907200D01*
X109309523Y-77907200D02*
X109166666Y-77954819D01*
X109166666Y-77954819D02*
X109071428Y-77954819D01*
X109071428Y-77954819D02*
X108928571Y-77907200D01*
X108928571Y-77907200D02*
X108833333Y-77811961D01*
X108833333Y-77811961D02*
X108785714Y-77716723D01*
X108785714Y-77716723D02*
X108738095Y-77526247D01*
X108738095Y-77526247D02*
X108738095Y-77383390D01*
X108738095Y-77383390D02*
X108785714Y-77192914D01*
X108785714Y-77192914D02*
X108833333Y-77097676D01*
X108833333Y-77097676D02*
X108928571Y-77002438D01*
X108928571Y-77002438D02*
X109071428Y-76954819D01*
X109071428Y-76954819D02*
X109166666Y-76954819D01*
X109166666Y-76954819D02*
X109309523Y-77002438D01*
X109309523Y-77002438D02*
X109357142Y-77050057D01*
X110309523Y-77954819D02*
X109738095Y-77954819D01*
X110023809Y-77954819D02*
X110023809Y-76954819D01*
X110023809Y-76954819D02*
X109928571Y-77097676D01*
X109928571Y-77097676D02*
X109833333Y-77192914D01*
X109833333Y-77192914D02*
X109738095Y-77240533D01*
X110690476Y-77050057D02*
X110738095Y-77002438D01*
X110738095Y-77002438D02*
X110833333Y-76954819D01*
X110833333Y-76954819D02*
X111071428Y-76954819D01*
X111071428Y-76954819D02*
X111166666Y-77002438D01*
X111166666Y-77002438D02*
X111214285Y-77050057D01*
X111214285Y-77050057D02*
X111261904Y-77145295D01*
X111261904Y-77145295D02*
X111261904Y-77240533D01*
X111261904Y-77240533D02*
X111214285Y-77383390D01*
X111214285Y-77383390D02*
X110642857Y-77954819D01*
X110642857Y-77954819D02*
X111261904Y-77954819D01*
X109357142Y-83134580D02*
X109309523Y-83182200D01*
X109309523Y-83182200D02*
X109166666Y-83229819D01*
X109166666Y-83229819D02*
X109071428Y-83229819D01*
X109071428Y-83229819D02*
X108928571Y-83182200D01*
X108928571Y-83182200D02*
X108833333Y-83086961D01*
X108833333Y-83086961D02*
X108785714Y-82991723D01*
X108785714Y-82991723D02*
X108738095Y-82801247D01*
X108738095Y-82801247D02*
X108738095Y-82658390D01*
X108738095Y-82658390D02*
X108785714Y-82467914D01*
X108785714Y-82467914D02*
X108833333Y-82372676D01*
X108833333Y-82372676D02*
X108928571Y-82277438D01*
X108928571Y-82277438D02*
X109071428Y-82229819D01*
X109071428Y-82229819D02*
X109166666Y-82229819D01*
X109166666Y-82229819D02*
X109309523Y-82277438D01*
X109309523Y-82277438D02*
X109357142Y-82325057D01*
X110309523Y-83229819D02*
X109738095Y-83229819D01*
X110023809Y-83229819D02*
X110023809Y-82229819D01*
X110023809Y-82229819D02*
X109928571Y-82372676D01*
X109928571Y-82372676D02*
X109833333Y-82467914D01*
X109833333Y-82467914D02*
X109738095Y-82515533D01*
X111261904Y-83229819D02*
X110690476Y-83229819D01*
X110976190Y-83229819D02*
X110976190Y-82229819D01*
X110976190Y-82229819D02*
X110880952Y-82372676D01*
X110880952Y-82372676D02*
X110785714Y-82467914D01*
X110785714Y-82467914D02*
X110690476Y-82515533D01*
X106632142Y-83859580D02*
X106584523Y-83907200D01*
X106584523Y-83907200D02*
X106441666Y-83954819D01*
X106441666Y-83954819D02*
X106346428Y-83954819D01*
X106346428Y-83954819D02*
X106203571Y-83907200D01*
X106203571Y-83907200D02*
X106108333Y-83811961D01*
X106108333Y-83811961D02*
X106060714Y-83716723D01*
X106060714Y-83716723D02*
X106013095Y-83526247D01*
X106013095Y-83526247D02*
X106013095Y-83383390D01*
X106013095Y-83383390D02*
X106060714Y-83192914D01*
X106060714Y-83192914D02*
X106108333Y-83097676D01*
X106108333Y-83097676D02*
X106203571Y-83002438D01*
X106203571Y-83002438D02*
X106346428Y-82954819D01*
X106346428Y-82954819D02*
X106441666Y-82954819D01*
X106441666Y-82954819D02*
X106584523Y-83002438D01*
X106584523Y-83002438D02*
X106632142Y-83050057D01*
X107584523Y-83954819D02*
X107013095Y-83954819D01*
X107298809Y-83954819D02*
X107298809Y-82954819D01*
X107298809Y-82954819D02*
X107203571Y-83097676D01*
X107203571Y-83097676D02*
X107108333Y-83192914D01*
X107108333Y-83192914D02*
X107013095Y-83240533D01*
X108203571Y-82954819D02*
X108298809Y-82954819D01*
X108298809Y-82954819D02*
X108394047Y-83002438D01*
X108394047Y-83002438D02*
X108441666Y-83050057D01*
X108441666Y-83050057D02*
X108489285Y-83145295D01*
X108489285Y-83145295D02*
X108536904Y-83335771D01*
X108536904Y-83335771D02*
X108536904Y-83573866D01*
X108536904Y-83573866D02*
X108489285Y-83764342D01*
X108489285Y-83764342D02*
X108441666Y-83859580D01*
X108441666Y-83859580D02*
X108394047Y-83907200D01*
X108394047Y-83907200D02*
X108298809Y-83954819D01*
X108298809Y-83954819D02*
X108203571Y-83954819D01*
X108203571Y-83954819D02*
X108108333Y-83907200D01*
X108108333Y-83907200D02*
X108060714Y-83859580D01*
X108060714Y-83859580D02*
X108013095Y-83764342D01*
X108013095Y-83764342D02*
X107965476Y-83573866D01*
X107965476Y-83573866D02*
X107965476Y-83335771D01*
X107965476Y-83335771D02*
X108013095Y-83145295D01*
X108013095Y-83145295D02*
X108060714Y-83050057D01*
X108060714Y-83050057D02*
X108108333Y-83002438D01*
X108108333Y-83002438D02*
X108203571Y-82954819D01*
X104108333Y-88859580D02*
X104060714Y-88907200D01*
X104060714Y-88907200D02*
X103917857Y-88954819D01*
X103917857Y-88954819D02*
X103822619Y-88954819D01*
X103822619Y-88954819D02*
X103679762Y-88907200D01*
X103679762Y-88907200D02*
X103584524Y-88811961D01*
X103584524Y-88811961D02*
X103536905Y-88716723D01*
X103536905Y-88716723D02*
X103489286Y-88526247D01*
X103489286Y-88526247D02*
X103489286Y-88383390D01*
X103489286Y-88383390D02*
X103536905Y-88192914D01*
X103536905Y-88192914D02*
X103584524Y-88097676D01*
X103584524Y-88097676D02*
X103679762Y-88002438D01*
X103679762Y-88002438D02*
X103822619Y-87954819D01*
X103822619Y-87954819D02*
X103917857Y-87954819D01*
X103917857Y-87954819D02*
X104060714Y-88002438D01*
X104060714Y-88002438D02*
X104108333Y-88050057D01*
X104584524Y-88954819D02*
X104775000Y-88954819D01*
X104775000Y-88954819D02*
X104870238Y-88907200D01*
X104870238Y-88907200D02*
X104917857Y-88859580D01*
X104917857Y-88859580D02*
X105013095Y-88716723D01*
X105013095Y-88716723D02*
X105060714Y-88526247D01*
X105060714Y-88526247D02*
X105060714Y-88145295D01*
X105060714Y-88145295D02*
X105013095Y-88050057D01*
X105013095Y-88050057D02*
X104965476Y-88002438D01*
X104965476Y-88002438D02*
X104870238Y-87954819D01*
X104870238Y-87954819D02*
X104679762Y-87954819D01*
X104679762Y-87954819D02*
X104584524Y-88002438D01*
X104584524Y-88002438D02*
X104536905Y-88050057D01*
X104536905Y-88050057D02*
X104489286Y-88145295D01*
X104489286Y-88145295D02*
X104489286Y-88383390D01*
X104489286Y-88383390D02*
X104536905Y-88478628D01*
X104536905Y-88478628D02*
X104584524Y-88526247D01*
X104584524Y-88526247D02*
X104679762Y-88573866D01*
X104679762Y-88573866D02*
X104870238Y-88573866D01*
X104870238Y-88573866D02*
X104965476Y-88526247D01*
X104965476Y-88526247D02*
X105013095Y-88478628D01*
X105013095Y-88478628D02*
X105060714Y-88383390D01*
X129833333Y-76359580D02*
X129785714Y-76407200D01*
X129785714Y-76407200D02*
X129642857Y-76454819D01*
X129642857Y-76454819D02*
X129547619Y-76454819D01*
X129547619Y-76454819D02*
X129404762Y-76407200D01*
X129404762Y-76407200D02*
X129309524Y-76311961D01*
X129309524Y-76311961D02*
X129261905Y-76216723D01*
X129261905Y-76216723D02*
X129214286Y-76026247D01*
X129214286Y-76026247D02*
X129214286Y-75883390D01*
X129214286Y-75883390D02*
X129261905Y-75692914D01*
X129261905Y-75692914D02*
X129309524Y-75597676D01*
X129309524Y-75597676D02*
X129404762Y-75502438D01*
X129404762Y-75502438D02*
X129547619Y-75454819D01*
X129547619Y-75454819D02*
X129642857Y-75454819D01*
X129642857Y-75454819D02*
X129785714Y-75502438D01*
X129785714Y-75502438D02*
X129833333Y-75550057D01*
X130404762Y-75883390D02*
X130309524Y-75835771D01*
X130309524Y-75835771D02*
X130261905Y-75788152D01*
X130261905Y-75788152D02*
X130214286Y-75692914D01*
X130214286Y-75692914D02*
X130214286Y-75645295D01*
X130214286Y-75645295D02*
X130261905Y-75550057D01*
X130261905Y-75550057D02*
X130309524Y-75502438D01*
X130309524Y-75502438D02*
X130404762Y-75454819D01*
X130404762Y-75454819D02*
X130595238Y-75454819D01*
X130595238Y-75454819D02*
X130690476Y-75502438D01*
X130690476Y-75502438D02*
X130738095Y-75550057D01*
X130738095Y-75550057D02*
X130785714Y-75645295D01*
X130785714Y-75645295D02*
X130785714Y-75692914D01*
X130785714Y-75692914D02*
X130738095Y-75788152D01*
X130738095Y-75788152D02*
X130690476Y-75835771D01*
X130690476Y-75835771D02*
X130595238Y-75883390D01*
X130595238Y-75883390D02*
X130404762Y-75883390D01*
X130404762Y-75883390D02*
X130309524Y-75931009D01*
X130309524Y-75931009D02*
X130261905Y-75978628D01*
X130261905Y-75978628D02*
X130214286Y-76073866D01*
X130214286Y-76073866D02*
X130214286Y-76264342D01*
X130214286Y-76264342D02*
X130261905Y-76359580D01*
X130261905Y-76359580D02*
X130309524Y-76407200D01*
X130309524Y-76407200D02*
X130404762Y-76454819D01*
X130404762Y-76454819D02*
X130595238Y-76454819D01*
X130595238Y-76454819D02*
X130690476Y-76407200D01*
X130690476Y-76407200D02*
X130738095Y-76359580D01*
X130738095Y-76359580D02*
X130785714Y-76264342D01*
X130785714Y-76264342D02*
X130785714Y-76073866D01*
X130785714Y-76073866D02*
X130738095Y-75978628D01*
X130738095Y-75978628D02*
X130690476Y-75931009D01*
X130690476Y-75931009D02*
X130595238Y-75883390D01*
X119833333Y-90039580D02*
X119785714Y-90087200D01*
X119785714Y-90087200D02*
X119642857Y-90134819D01*
X119642857Y-90134819D02*
X119547619Y-90134819D01*
X119547619Y-90134819D02*
X119404762Y-90087200D01*
X119404762Y-90087200D02*
X119309524Y-89991961D01*
X119309524Y-89991961D02*
X119261905Y-89896723D01*
X119261905Y-89896723D02*
X119214286Y-89706247D01*
X119214286Y-89706247D02*
X119214286Y-89563390D01*
X119214286Y-89563390D02*
X119261905Y-89372914D01*
X119261905Y-89372914D02*
X119309524Y-89277676D01*
X119309524Y-89277676D02*
X119404762Y-89182438D01*
X119404762Y-89182438D02*
X119547619Y-89134819D01*
X119547619Y-89134819D02*
X119642857Y-89134819D01*
X119642857Y-89134819D02*
X119785714Y-89182438D01*
X119785714Y-89182438D02*
X119833333Y-89230057D01*
X120166667Y-89134819D02*
X120833333Y-89134819D01*
X120833333Y-89134819D02*
X120404762Y-90134819D01*
X128333333Y-74359580D02*
X128285714Y-74407200D01*
X128285714Y-74407200D02*
X128142857Y-74454819D01*
X128142857Y-74454819D02*
X128047619Y-74454819D01*
X128047619Y-74454819D02*
X127904762Y-74407200D01*
X127904762Y-74407200D02*
X127809524Y-74311961D01*
X127809524Y-74311961D02*
X127761905Y-74216723D01*
X127761905Y-74216723D02*
X127714286Y-74026247D01*
X127714286Y-74026247D02*
X127714286Y-73883390D01*
X127714286Y-73883390D02*
X127761905Y-73692914D01*
X127761905Y-73692914D02*
X127809524Y-73597676D01*
X127809524Y-73597676D02*
X127904762Y-73502438D01*
X127904762Y-73502438D02*
X128047619Y-73454819D01*
X128047619Y-73454819D02*
X128142857Y-73454819D01*
X128142857Y-73454819D02*
X128285714Y-73502438D01*
X128285714Y-73502438D02*
X128333333Y-73550057D01*
X129190476Y-73454819D02*
X129000000Y-73454819D01*
X129000000Y-73454819D02*
X128904762Y-73502438D01*
X128904762Y-73502438D02*
X128857143Y-73550057D01*
X128857143Y-73550057D02*
X128761905Y-73692914D01*
X128761905Y-73692914D02*
X128714286Y-73883390D01*
X128714286Y-73883390D02*
X128714286Y-74264342D01*
X128714286Y-74264342D02*
X128761905Y-74359580D01*
X128761905Y-74359580D02*
X128809524Y-74407200D01*
X128809524Y-74407200D02*
X128904762Y-74454819D01*
X128904762Y-74454819D02*
X129095238Y-74454819D01*
X129095238Y-74454819D02*
X129190476Y-74407200D01*
X129190476Y-74407200D02*
X129238095Y-74359580D01*
X129238095Y-74359580D02*
X129285714Y-74264342D01*
X129285714Y-74264342D02*
X129285714Y-74026247D01*
X129285714Y-74026247D02*
X129238095Y-73931009D01*
X129238095Y-73931009D02*
X129190476Y-73883390D01*
X129190476Y-73883390D02*
X129095238Y-73835771D01*
X129095238Y-73835771D02*
X128904762Y-73835771D01*
X128904762Y-73835771D02*
X128809524Y-73883390D01*
X128809524Y-73883390D02*
X128761905Y-73931009D01*
X128761905Y-73931009D02*
X128714286Y-74026247D01*
X115833333Y-89289580D02*
X115785714Y-89337200D01*
X115785714Y-89337200D02*
X115642857Y-89384819D01*
X115642857Y-89384819D02*
X115547619Y-89384819D01*
X115547619Y-89384819D02*
X115404762Y-89337200D01*
X115404762Y-89337200D02*
X115309524Y-89241961D01*
X115309524Y-89241961D02*
X115261905Y-89146723D01*
X115261905Y-89146723D02*
X115214286Y-88956247D01*
X115214286Y-88956247D02*
X115214286Y-88813390D01*
X115214286Y-88813390D02*
X115261905Y-88622914D01*
X115261905Y-88622914D02*
X115309524Y-88527676D01*
X115309524Y-88527676D02*
X115404762Y-88432438D01*
X115404762Y-88432438D02*
X115547619Y-88384819D01*
X115547619Y-88384819D02*
X115642857Y-88384819D01*
X115642857Y-88384819D02*
X115785714Y-88432438D01*
X115785714Y-88432438D02*
X115833333Y-88480057D01*
X116738095Y-88384819D02*
X116261905Y-88384819D01*
X116261905Y-88384819D02*
X116214286Y-88861009D01*
X116214286Y-88861009D02*
X116261905Y-88813390D01*
X116261905Y-88813390D02*
X116357143Y-88765771D01*
X116357143Y-88765771D02*
X116595238Y-88765771D01*
X116595238Y-88765771D02*
X116690476Y-88813390D01*
X116690476Y-88813390D02*
X116738095Y-88861009D01*
X116738095Y-88861009D02*
X116785714Y-88956247D01*
X116785714Y-88956247D02*
X116785714Y-89194342D01*
X116785714Y-89194342D02*
X116738095Y-89289580D01*
X116738095Y-89289580D02*
X116690476Y-89337200D01*
X116690476Y-89337200D02*
X116595238Y-89384819D01*
X116595238Y-89384819D02*
X116357143Y-89384819D01*
X116357143Y-89384819D02*
X116261905Y-89337200D01*
X116261905Y-89337200D02*
X116214286Y-89289580D01*
X124859580Y-88166666D02*
X124907200Y-88214285D01*
X124907200Y-88214285D02*
X124954819Y-88357142D01*
X124954819Y-88357142D02*
X124954819Y-88452380D01*
X124954819Y-88452380D02*
X124907200Y-88595237D01*
X124907200Y-88595237D02*
X124811961Y-88690475D01*
X124811961Y-88690475D02*
X124716723Y-88738094D01*
X124716723Y-88738094D02*
X124526247Y-88785713D01*
X124526247Y-88785713D02*
X124383390Y-88785713D01*
X124383390Y-88785713D02*
X124192914Y-88738094D01*
X124192914Y-88738094D02*
X124097676Y-88690475D01*
X124097676Y-88690475D02*
X124002438Y-88595237D01*
X124002438Y-88595237D02*
X123954819Y-88452380D01*
X123954819Y-88452380D02*
X123954819Y-88357142D01*
X123954819Y-88357142D02*
X124002438Y-88214285D01*
X124002438Y-88214285D02*
X124050057Y-88166666D01*
X124288152Y-87309523D02*
X124954819Y-87309523D01*
X123907200Y-87547618D02*
X124621485Y-87785713D01*
X124621485Y-87785713D02*
X124621485Y-87166666D01*
X108833333Y-75359580D02*
X108785714Y-75407200D01*
X108785714Y-75407200D02*
X108642857Y-75454819D01*
X108642857Y-75454819D02*
X108547619Y-75454819D01*
X108547619Y-75454819D02*
X108404762Y-75407200D01*
X108404762Y-75407200D02*
X108309524Y-75311961D01*
X108309524Y-75311961D02*
X108261905Y-75216723D01*
X108261905Y-75216723D02*
X108214286Y-75026247D01*
X108214286Y-75026247D02*
X108214286Y-74883390D01*
X108214286Y-74883390D02*
X108261905Y-74692914D01*
X108261905Y-74692914D02*
X108309524Y-74597676D01*
X108309524Y-74597676D02*
X108404762Y-74502438D01*
X108404762Y-74502438D02*
X108547619Y-74454819D01*
X108547619Y-74454819D02*
X108642857Y-74454819D01*
X108642857Y-74454819D02*
X108785714Y-74502438D01*
X108785714Y-74502438D02*
X108833333Y-74550057D01*
X109166667Y-74454819D02*
X109785714Y-74454819D01*
X109785714Y-74454819D02*
X109452381Y-74835771D01*
X109452381Y-74835771D02*
X109595238Y-74835771D01*
X109595238Y-74835771D02*
X109690476Y-74883390D01*
X109690476Y-74883390D02*
X109738095Y-74931009D01*
X109738095Y-74931009D02*
X109785714Y-75026247D01*
X109785714Y-75026247D02*
X109785714Y-75264342D01*
X109785714Y-75264342D02*
X109738095Y-75359580D01*
X109738095Y-75359580D02*
X109690476Y-75407200D01*
X109690476Y-75407200D02*
X109595238Y-75454819D01*
X109595238Y-75454819D02*
X109309524Y-75454819D01*
X109309524Y-75454819D02*
X109214286Y-75407200D01*
X109214286Y-75407200D02*
X109166667Y-75359580D01*
X120833333Y-69429580D02*
X120785714Y-69477200D01*
X120785714Y-69477200D02*
X120642857Y-69524819D01*
X120642857Y-69524819D02*
X120547619Y-69524819D01*
X120547619Y-69524819D02*
X120404762Y-69477200D01*
X120404762Y-69477200D02*
X120309524Y-69381961D01*
X120309524Y-69381961D02*
X120261905Y-69286723D01*
X120261905Y-69286723D02*
X120214286Y-69096247D01*
X120214286Y-69096247D02*
X120214286Y-68953390D01*
X120214286Y-68953390D02*
X120261905Y-68762914D01*
X120261905Y-68762914D02*
X120309524Y-68667676D01*
X120309524Y-68667676D02*
X120404762Y-68572438D01*
X120404762Y-68572438D02*
X120547619Y-68524819D01*
X120547619Y-68524819D02*
X120642857Y-68524819D01*
X120642857Y-68524819D02*
X120785714Y-68572438D01*
X120785714Y-68572438D02*
X120833333Y-68620057D01*
X121214286Y-68620057D02*
X121261905Y-68572438D01*
X121261905Y-68572438D02*
X121357143Y-68524819D01*
X121357143Y-68524819D02*
X121595238Y-68524819D01*
X121595238Y-68524819D02*
X121690476Y-68572438D01*
X121690476Y-68572438D02*
X121738095Y-68620057D01*
X121738095Y-68620057D02*
X121785714Y-68715295D01*
X121785714Y-68715295D02*
X121785714Y-68810533D01*
X121785714Y-68810533D02*
X121738095Y-68953390D01*
X121738095Y-68953390D02*
X121166667Y-69524819D01*
X121166667Y-69524819D02*
X121785714Y-69524819D01*
X114833333Y-69429580D02*
X114785714Y-69477200D01*
X114785714Y-69477200D02*
X114642857Y-69524819D01*
X114642857Y-69524819D02*
X114547619Y-69524819D01*
X114547619Y-69524819D02*
X114404762Y-69477200D01*
X114404762Y-69477200D02*
X114309524Y-69381961D01*
X114309524Y-69381961D02*
X114261905Y-69286723D01*
X114261905Y-69286723D02*
X114214286Y-69096247D01*
X114214286Y-69096247D02*
X114214286Y-68953390D01*
X114214286Y-68953390D02*
X114261905Y-68762914D01*
X114261905Y-68762914D02*
X114309524Y-68667676D01*
X114309524Y-68667676D02*
X114404762Y-68572438D01*
X114404762Y-68572438D02*
X114547619Y-68524819D01*
X114547619Y-68524819D02*
X114642857Y-68524819D01*
X114642857Y-68524819D02*
X114785714Y-68572438D01*
X114785714Y-68572438D02*
X114833333Y-68620057D01*
X115785714Y-69524819D02*
X115214286Y-69524819D01*
X115500000Y-69524819D02*
X115500000Y-68524819D01*
X115500000Y-68524819D02*
X115404762Y-68667676D01*
X115404762Y-68667676D02*
X115309524Y-68762914D01*
X115309524Y-68762914D02*
X115214286Y-68810533D01*
%TO.C,SW1*%
D11*
X101570000Y-67550000D02*
X100780000Y-67550000D01*
X102620000Y-69400000D02*
X102620000Y-71100000D01*
X102620000Y-72400000D02*
X102620000Y-72600000D01*
X100780000Y-74450000D02*
X101570000Y-74450000D01*
%TO.C,U5*%
D12*
X112660000Y-65175000D02*
X113100000Y-65175000D01*
X111100000Y-65175000D02*
X111740000Y-65175000D01*
X111100000Y-65175000D02*
X111100000Y-65325000D01*
X113300000Y-67725000D02*
X113300000Y-67875000D01*
X112660000Y-67875000D02*
X113300000Y-67875000D01*
X111100000Y-67875000D02*
X111740000Y-67875000D01*
X113300000Y-65175000D02*
X113300000Y-64815000D01*
X113660000Y-65175000D01*
X113300000Y-65175000D01*
G36*
X113660000Y-65175000D02*
G01*
X113300000Y-65175000D01*
X113300000Y-64815000D01*
X113660000Y-65175000D01*
G37*
%TO.C,J7*%
D11*
X134155000Y-62905000D02*
X134155000Y-61505000D01*
X131805000Y-65080000D02*
X131805000Y-64655000D01*
X131805000Y-64655000D02*
X132805000Y-64655000D01*
X131080000Y-65080000D02*
X131805000Y-65080000D01*
X128205000Y-64655000D02*
X127205000Y-64655000D01*
X125855000Y-61505000D02*
X125855000Y-62905000D01*
%TO.C,U2*%
X137850000Y-81410000D02*
X134090000Y-81410000D01*
X137850000Y-74590000D02*
X134090000Y-74590000D01*
X134090000Y-81410000D02*
X134090000Y-80150000D01*
X134090000Y-74590000D02*
X134090000Y-75850000D01*
X139130000Y-81310000D02*
X139370000Y-81640000D01*
X138890000Y-81640000D01*
X139130000Y-81310000D01*
G36*
X139370000Y-81640000D02*
G01*
X138890000Y-81640000D01*
X139130000Y-81310000D01*
X139370000Y-81640000D01*
G37*
%TO.C,C15*%
X137888748Y-82565000D02*
X138411252Y-82565000D01*
X137888748Y-84035000D02*
X138411252Y-84035000D01*
%TO.C,C14*%
X137911252Y-73535000D02*
X137388748Y-73535000D01*
X137911252Y-72065000D02*
X137388748Y-72065000D01*
%TO.C,R4*%
X129346359Y-70620000D02*
X129653641Y-70620000D01*
X129346359Y-71380000D02*
X129653641Y-71380000D01*
%TO.C,Y1*%
X105960000Y-79560000D02*
X105960000Y-76140000D01*
X105960000Y-76140000D02*
X101840000Y-76140000D01*
%TO.C,U4*%
X115390000Y-65165000D02*
X116065000Y-65165000D01*
X115390000Y-65340000D02*
X115390000Y-65165000D01*
X115390000Y-68385000D02*
X115390000Y-68210000D01*
X116065000Y-68385000D02*
X115390000Y-68385000D01*
X117935000Y-65165000D02*
X118610000Y-65165000D01*
X118610000Y-65165000D02*
X118610000Y-65340000D01*
X118610000Y-68210000D02*
X118610000Y-68385000D01*
X118610000Y-68385000D02*
X117935000Y-68385000D01*
X115240000Y-65775000D02*
X114910000Y-66015000D01*
X114910000Y-65535000D01*
X115240000Y-65775000D01*
G36*
X115240000Y-65775000D02*
G01*
X114910000Y-66015000D01*
X114910000Y-65535000D01*
X115240000Y-65775000D01*
G37*
%TO.C,U1*%
X113565000Y-74390000D02*
X114515000Y-74390000D01*
X113565000Y-75340000D02*
X113565000Y-74390000D01*
X113565000Y-84610000D02*
X113565000Y-83660000D01*
X114515000Y-84610000D02*
X113565000Y-84610000D01*
X122835000Y-74390000D02*
X123785000Y-74390000D01*
X123785000Y-74390000D02*
X123785000Y-75340000D01*
X123785000Y-83660000D02*
X123785000Y-84610000D01*
X123785000Y-84610000D02*
X122835000Y-84610000D01*
X112925000Y-75340000D02*
X112585000Y-74870000D01*
X113265000Y-74870000D01*
X112925000Y-75340000D01*
G36*
X112925000Y-75340000D02*
G01*
X112585000Y-74870000D01*
X113265000Y-74870000D01*
X112925000Y-75340000D01*
G37*
%TO.C,R3*%
X110772936Y-61265000D02*
X111227064Y-61265000D01*
X110772936Y-62735000D02*
X111227064Y-62735000D01*
%TO.C,R2*%
X111765000Y-70727064D02*
X111765000Y-70272936D01*
X113235000Y-70727064D02*
X113235000Y-70272936D01*
%TO.C,R1*%
X110735000Y-71272936D02*
X110735000Y-71727064D01*
X109265000Y-71272936D02*
X109265000Y-71727064D01*
%TO.C,J6*%
X119120000Y-92580000D02*
X120500000Y-92580000D01*
X119120000Y-93960000D02*
X119120000Y-92580000D01*
X119120000Y-95230000D02*
X119120000Y-100420000D01*
X119120000Y-95230000D02*
X121880000Y-95230000D01*
X119120000Y-100420000D02*
X121880000Y-100420000D01*
X121880000Y-95230000D02*
X121880000Y-100420000D01*
%TO.C,J5*%
X124120000Y-92580000D02*
X125500000Y-92580000D01*
X124120000Y-93960000D02*
X124120000Y-92580000D01*
X124120000Y-95230000D02*
X124120000Y-100420000D01*
X124120000Y-95230000D02*
X126880000Y-95230000D01*
X124120000Y-100420000D02*
X126880000Y-100420000D01*
X126880000Y-95230000D02*
X126880000Y-100420000D01*
%TO.C,J4*%
X114120000Y-92580000D02*
X115500000Y-92580000D01*
X114120000Y-93960000D02*
X114120000Y-92580000D01*
X114120000Y-95230000D02*
X114120000Y-100420000D01*
X114120000Y-95230000D02*
X116880000Y-95230000D01*
X114120000Y-100420000D02*
X116880000Y-100420000D01*
X116880000Y-95230000D02*
X116880000Y-100420000D01*
%TO.C,J3*%
X109120000Y-92620000D02*
X110500000Y-92620000D01*
X109120000Y-94000000D02*
X109120000Y-92620000D01*
X109120000Y-95270000D02*
X109120000Y-100460000D01*
X109120000Y-95270000D02*
X111880000Y-95270000D01*
X109120000Y-100460000D02*
X111880000Y-100460000D01*
X111880000Y-95270000D02*
X111880000Y-100460000D01*
%TO.C,J2*%
X130620000Y-90310000D02*
X132000000Y-90310000D01*
X130620000Y-91690000D02*
X130620000Y-90310000D01*
X130620000Y-92960000D02*
X130620000Y-100690000D01*
X130620000Y-92960000D02*
X133380000Y-92960000D01*
X130620000Y-100690000D02*
X133380000Y-100690000D01*
X133380000Y-92960000D02*
X133380000Y-100690000D01*
%TO.C,FB1*%
X104112221Y-84490000D02*
X104437779Y-84490000D01*
X104112221Y-85510000D02*
X104437779Y-85510000D01*
%TO.C,C24*%
X107634420Y-86490000D02*
X107915580Y-86490000D01*
X107634420Y-87510000D02*
X107915580Y-87510000D01*
%TO.C,C23*%
X107859420Y-66990000D02*
X108140580Y-66990000D01*
X107859420Y-68010000D02*
X108140580Y-68010000D01*
%TO.C,C22*%
X108359420Y-63990000D02*
X108640580Y-63990000D01*
X108359420Y-65010000D02*
X108640580Y-65010000D01*
%TO.C,C21*%
X120140580Y-64510000D02*
X119859420Y-64510000D01*
X120140580Y-63490000D02*
X119859420Y-63490000D01*
%TO.C,C20*%
X120265000Y-66640580D02*
X120265000Y-66359420D01*
X121285000Y-66640580D02*
X121285000Y-66359420D01*
%TO.C,C19*%
X115359420Y-63490000D02*
X115640580Y-63490000D01*
X115359420Y-64510000D02*
X115640580Y-64510000D01*
%TO.C,C18*%
X123134420Y-66990000D02*
X123415580Y-66990000D01*
X123134420Y-68010000D02*
X123415580Y-68010000D01*
%TO.C,C13*%
X108010000Y-80359420D02*
X108010000Y-80640580D01*
X106990000Y-80359420D02*
X106990000Y-80640580D01*
%TO.C,C12*%
X106990000Y-77140580D02*
X106990000Y-76859420D01*
X108010000Y-77140580D02*
X108010000Y-76859420D01*
%TO.C,C11*%
X111010000Y-80134420D02*
X111010000Y-80415580D01*
X109990000Y-80134420D02*
X109990000Y-80415580D01*
%TO.C,C10*%
X107634420Y-84490000D02*
X107915580Y-84490000D01*
X107634420Y-85510000D02*
X107915580Y-85510000D01*
%TO.C,C9*%
X104134420Y-86490000D02*
X104415580Y-86490000D01*
X104134420Y-87510000D02*
X104415580Y-87510000D01*
%TO.C,C8*%
X127761252Y-76735000D02*
X127238748Y-76735000D01*
X127761252Y-75265000D02*
X127238748Y-75265000D01*
%TO.C,C7*%
X120261252Y-88735000D02*
X119738748Y-88735000D01*
X120261252Y-87265000D02*
X119738748Y-87265000D01*
%TO.C,C6*%
X125859420Y-73490000D02*
X126140580Y-73490000D01*
X125859420Y-74510000D02*
X126140580Y-74510000D01*
%TO.C,C5*%
X116140580Y-88010000D02*
X115859420Y-88010000D01*
X116140580Y-86990000D02*
X115859420Y-86990000D01*
%TO.C,C4*%
X123510000Y-87859420D02*
X123510000Y-88140580D01*
X122490000Y-87859420D02*
X122490000Y-88140580D01*
%TO.C,C3*%
X109990000Y-75140580D02*
X109990000Y-74859420D01*
X111010000Y-75140580D02*
X111010000Y-74859420D01*
%TO.C,C2*%
X120859420Y-69990000D02*
X121140580Y-69990000D01*
X120859420Y-71010000D02*
X121140580Y-71010000D01*
%TO.C,C1*%
X115859420Y-69990000D02*
X116140580Y-69990000D01*
X115859420Y-71010000D02*
X116140580Y-71010000D01*
%TD*%
M02*
