%TF.GenerationSoftware,KiCad,Pcbnew,10.0.6*%
%TF.CreationDate,2026-09-13T17:41:43+05:30*%
%TF.ProjectId,flight_controller_pcb,666c6967-6874-45f6-936f-6e74726f6c6c,rev?*%
%TF.SameCoordinates,Original*%
%TF.FileFunction,Soldermask,Top*%
%TF.FilePolarity,Negative*%
%FSLAX46Y46*%
G04 Gerber Fmt 4.6, Leading zero omitted, Abs format (unit mm)*
G04 Created by KiCad (PCBNEW 10.0.6) date 2026-09-13 17:41:43*
%MOMM*%
%LPD*%
G01*
G04 APERTURE LIST*
G04 Aperture macros list*
%AMRoundRect*
0 Rectangle with rounded corners*
0 $1 Rounding radius*
0 $2 $3 $4 $5 $6 $7 $8 $9 X,Y pos of 4 corners*
0 Add a 4 corners polygon primitive as box body*
4,1,4,$2,$3,$4,$5,$6,$7,$8,$9,$2,$3,0*
0 Add four circle primitives for the rounded corners*
1,1,$1+$1,$2,$3*
1,1,$1+$1,$4,$5*
1,1,$1+$1,$6,$7*
1,1,$1+$1,$8,$9*
0 Add four rect primitives between the rounded corners*
20,1,$1+$1,$2,$3,$4,$5,0*
20,1,$1+$1,$4,$5,$6,$7,0*
20,1,$1+$1,$6,$7,$8,$9,0*
20,1,$1+$1,$8,$9,$2,$3,0*%
G04 Aperture macros list end*
%ADD10R,0.800000X1.000000*%
%ADD11C,0.900000*%
%ADD12R,1.500000X0.700000*%
%ADD13R,0.500000X0.350000*%
%ADD14O,0.800000X0.800000*%
%ADD15RoundRect,0.112500X0.112500X0.537500X-0.112500X0.537500X-0.112500X-0.537500X0.112500X-0.537500X0*%
%ADD16O,1.150000X1.800000*%
%ADD17O,1.450000X2.000000*%
%ADD18RoundRect,0.375000X0.625000X0.375000X-0.625000X0.375000X-0.625000X-0.375000X0.625000X-0.375000X0*%
%ADD19RoundRect,0.500000X0.500000X1.400000X-0.500000X1.400000X-0.500000X-1.400000X0.500000X-1.400000X0*%
%ADD20RoundRect,0.250000X-0.250000X-0.475000X0.250000X-0.475000X0.250000X0.475000X-0.250000X0.475000X0*%
%ADD21RoundRect,0.250000X0.250000X0.475000X-0.250000X0.475000X-0.250000X-0.475000X0.250000X-0.475000X0*%
%ADD22RoundRect,0.135000X-0.135000X-0.185000X0.135000X-0.185000X0.135000X0.185000X-0.135000X0.185000X0*%
%ADD23RoundRect,0.250000X0.450000X0.350000X-0.450000X0.350000X-0.450000X-0.350000X0.450000X-0.350000X0*%
%ADD24RoundRect,0.087500X-0.187500X-0.087500X0.187500X-0.087500X0.187500X0.087500X-0.187500X0.087500X0*%
%ADD25RoundRect,0.087500X-0.087500X-0.187500X0.087500X-0.187500X0.087500X0.187500X-0.087500X0.187500X0*%
%ADD26RoundRect,0.075000X-0.700000X-0.075000X0.700000X-0.075000X0.700000X0.075000X-0.700000X0.075000X0*%
%ADD27RoundRect,0.075000X-0.075000X-0.700000X0.075000X-0.700000X0.075000X0.700000X-0.075000X0.700000X0*%
%ADD28RoundRect,0.250000X-0.262500X-0.450000X0.262500X-0.450000X0.262500X0.450000X-0.262500X0.450000X0*%
%ADD29RoundRect,0.250000X0.450000X-0.262500X0.450000X0.262500X-0.450000X0.262500X-0.450000X-0.262500X0*%
%ADD30RoundRect,0.250000X-0.450000X0.262500X-0.450000X-0.262500X0.450000X-0.262500X0.450000X0.262500X0*%
%ADD31R,1.700000X1.700000*%
%ADD32C,1.700000*%
%ADD33C,2.100000*%
%ADD34RoundRect,0.218750X-0.218750X-0.256250X0.218750X-0.256250X0.218750X0.256250X-0.218750X0.256250X0*%
%ADD35RoundRect,0.225000X-0.225000X-0.250000X0.225000X-0.250000X0.225000X0.250000X-0.225000X0.250000X0*%
%ADD36RoundRect,0.225000X0.225000X0.250000X-0.225000X0.250000X-0.225000X-0.250000X0.225000X-0.250000X0*%
%ADD37RoundRect,0.225000X0.250000X-0.225000X0.250000X0.225000X-0.250000X0.225000X-0.250000X-0.225000X0*%
%ADD38RoundRect,0.225000X-0.250000X0.225000X-0.250000X-0.225000X0.250000X-0.225000X0.250000X0.225000X0*%
G04 APERTURE END LIST*
D10*
%TO.C,SW1*%
X102280000Y-67350000D03*
X100070000Y-67350000D03*
D11*
X101170000Y-69500000D03*
X101170000Y-72500000D03*
D10*
X102280000Y-74650000D03*
X100070000Y-74650000D03*
D12*
X102930000Y-68750000D03*
X102930000Y-71750000D03*
X102930000Y-73250000D03*
%TD*%
D13*
%TO.C,U5*%
X113000000Y-65550000D03*
X113000000Y-66200000D03*
X113000000Y-66850000D03*
X113000000Y-67500000D03*
X111400000Y-67500000D03*
X111400000Y-66850000D03*
X111400000Y-66200000D03*
X111400000Y-65550000D03*
%TD*%
D14*
%TO.C,J7*%
X132505000Y-63055000D03*
X127505000Y-63055000D03*
D15*
X131305000Y-64155000D03*
X130655000Y-64155000D03*
X130005000Y-64155000D03*
X129355000Y-64155000D03*
X128705000Y-64155000D03*
D16*
X133880000Y-60305000D03*
D17*
X133730000Y-64105000D03*
X126280000Y-64105000D03*
D16*
X126130000Y-60305000D03*
%TD*%
D18*
%TO.C,U2*%
X139150000Y-80300000D03*
X139150000Y-78000000D03*
D19*
X132850000Y-78000000D03*
D18*
X139150000Y-75700000D03*
%TD*%
D20*
%TO.C,C15*%
X137200000Y-83300000D03*
X139100000Y-83300000D03*
%TD*%
D21*
%TO.C,C14*%
X138600000Y-72800000D03*
X136700000Y-72800000D03*
%TD*%
D22*
%TO.C,R4*%
X128990000Y-71000000D03*
X130010000Y-71000000D03*
%TD*%
D23*
%TO.C,Y1*%
X105000000Y-77000000D03*
X102800000Y-77000000D03*
X102800000Y-78700000D03*
X105000000Y-78700000D03*
%TD*%
D24*
%TO.C,U4*%
X115775000Y-65775000D03*
X115775000Y-66275000D03*
X115775000Y-66775000D03*
X115775000Y-67275000D03*
X115775000Y-67775000D03*
D25*
X116500000Y-68000000D03*
X117000000Y-68000000D03*
X117500000Y-68000000D03*
D24*
X118225000Y-67775000D03*
X118225000Y-67275000D03*
X118225000Y-66775000D03*
X118225000Y-66275000D03*
X118225000Y-65775000D03*
D25*
X117500000Y-65550000D03*
X117000000Y-65550000D03*
X116500000Y-65550000D03*
%TD*%
D26*
%TO.C,U1*%
X113000000Y-75750000D03*
X113000000Y-76250000D03*
X113000000Y-76750000D03*
X113000000Y-77250000D03*
X113000000Y-77750000D03*
X113000000Y-78250000D03*
X113000000Y-78750000D03*
X113000000Y-79250000D03*
X113000000Y-79750000D03*
X113000000Y-80250000D03*
X113000000Y-80750000D03*
X113000000Y-81250000D03*
X113000000Y-81750000D03*
X113000000Y-82250000D03*
X113000000Y-82750000D03*
X113000000Y-83250000D03*
D27*
X114925000Y-85175000D03*
X115425000Y-85175000D03*
X115925000Y-85175000D03*
X116425000Y-85175000D03*
X116925000Y-85175000D03*
X117425000Y-85175000D03*
X117925000Y-85175000D03*
X118425000Y-85175000D03*
X118925000Y-85175000D03*
X119425000Y-85175000D03*
X119925000Y-85175000D03*
X120425000Y-85175000D03*
X120925000Y-85175000D03*
X121425000Y-85175000D03*
X121925000Y-85175000D03*
X122425000Y-85175000D03*
D26*
X124350000Y-83250000D03*
X124350000Y-82750000D03*
X124350000Y-82250000D03*
X124350000Y-81750000D03*
X124350000Y-81250000D03*
X124350000Y-80750000D03*
X124350000Y-80250000D03*
X124350000Y-79750000D03*
X124350000Y-79250000D03*
X124350000Y-78750000D03*
X124350000Y-78250000D03*
X124350000Y-77750000D03*
X124350000Y-77250000D03*
X124350000Y-76750000D03*
X124350000Y-76250000D03*
X124350000Y-75750000D03*
D27*
X122425000Y-73825000D03*
X121925000Y-73825000D03*
X121425000Y-73825000D03*
X120925000Y-73825000D03*
X120425000Y-73825000D03*
X119925000Y-73825000D03*
X119425000Y-73825000D03*
X118925000Y-73825000D03*
X118425000Y-73825000D03*
X117925000Y-73825000D03*
X117425000Y-73825000D03*
X116925000Y-73825000D03*
X116425000Y-73825000D03*
X115925000Y-73825000D03*
X115425000Y-73825000D03*
X114925000Y-73825000D03*
%TD*%
D28*
%TO.C,R3*%
X110087500Y-62000000D03*
X111912500Y-62000000D03*
%TD*%
D29*
%TO.C,R2*%
X112500000Y-71412500D03*
X112500000Y-69587500D03*
%TD*%
D30*
%TO.C,R1*%
X110000000Y-70587500D03*
X110000000Y-72412500D03*
%TD*%
D31*
%TO.C,J6*%
X120500000Y-93960000D03*
D32*
X120500000Y-96500000D03*
X120500000Y-99040000D03*
%TD*%
D31*
%TO.C,J5*%
X125500000Y-93960000D03*
D32*
X125500000Y-96500000D03*
X125500000Y-99040000D03*
%TD*%
D31*
%TO.C,J4*%
X115500000Y-93960000D03*
D32*
X115500000Y-96500000D03*
X115500000Y-99040000D03*
%TD*%
D31*
%TO.C,J3*%
X110500000Y-94000000D03*
D32*
X110500000Y-96540000D03*
X110500000Y-99080000D03*
%TD*%
D31*
%TO.C,J2*%
X132000000Y-91690000D03*
D32*
X132000000Y-94230000D03*
X132000000Y-96770000D03*
X132000000Y-99310000D03*
%TD*%
D33*
%TO.C,H4*%
X140000000Y-103000000D03*
%TD*%
%TO.C,H3*%
X102000000Y-103000000D03*
%TD*%
%TO.C,H2*%
X140000000Y-61000000D03*
%TD*%
%TO.C,H1*%
X102000000Y-61000000D03*
%TD*%
D34*
%TO.C,FB1*%
X103487500Y-85000000D03*
X105062500Y-85000000D03*
%TD*%
D35*
%TO.C,C24*%
X107000000Y-87000000D03*
X108550000Y-87000000D03*
%TD*%
%TO.C,C23*%
X107225000Y-67500000D03*
X108775000Y-67500000D03*
%TD*%
%TO.C,C22*%
X107725000Y-64500000D03*
X109275000Y-64500000D03*
%TD*%
D36*
%TO.C,C21*%
X120775000Y-64000000D03*
X119225000Y-64000000D03*
%TD*%
D37*
%TO.C,C20*%
X120775000Y-67275000D03*
X120775000Y-65725000D03*
%TD*%
D35*
%TO.C,C19*%
X114725000Y-64000000D03*
X116275000Y-64000000D03*
%TD*%
%TO.C,C18*%
X122500000Y-67500000D03*
X124050000Y-67500000D03*
%TD*%
D38*
%TO.C,C13*%
X107500000Y-79725000D03*
X107500000Y-81275000D03*
%TD*%
D37*
%TO.C,C12*%
X107500000Y-77775000D03*
X107500000Y-76225000D03*
%TD*%
D38*
%TO.C,C11*%
X110500000Y-79500000D03*
X110500000Y-81050000D03*
%TD*%
D35*
%TO.C,C10*%
X107000000Y-85000000D03*
X108550000Y-85000000D03*
%TD*%
%TO.C,C9*%
X103500000Y-87000000D03*
X105050000Y-87000000D03*
%TD*%
D21*
%TO.C,C8*%
X128450000Y-76000000D03*
X126550000Y-76000000D03*
%TD*%
%TO.C,C7*%
X120950000Y-88000000D03*
X119050000Y-88000000D03*
%TD*%
D35*
%TO.C,C6*%
X125225000Y-74000000D03*
X126775000Y-74000000D03*
%TD*%
D36*
%TO.C,C5*%
X116775000Y-87500000D03*
X115225000Y-87500000D03*
%TD*%
D38*
%TO.C,C4*%
X123000000Y-87225000D03*
X123000000Y-88775000D03*
%TD*%
D37*
%TO.C,C3*%
X110500000Y-75775000D03*
X110500000Y-74225000D03*
%TD*%
D35*
%TO.C,C2*%
X120225000Y-70500000D03*
X121775000Y-70500000D03*
%TD*%
%TO.C,C1*%
X115225000Y-70500000D03*
X116775000Y-70500000D03*
%TD*%
M02*
